<svg width="200" height="60" viewBox="0 0 200 60" fill="none" xmlns="http://www.w3.org/2000/svg">
<rect width="200" height="60" fill="white"/>
<path d="M103.244 20.5481C103.244 21.9176 102.156 23.0203 100.807 23.0203C99.4569 23.0203 98.37 21.9176 98.37 20.5481C98.37 19.1786 99.4198 18.0758 100.807 18.0758C102.194 18.1138 103.244 19.217 103.244 20.5481V20.5481ZM93.1967 25.5313V26.14C93.1967 26.14 92.035 24.6178 89.5606 24.6178C85.4748 24.6178 82.2878 27.7751 82.2878 32.1492C82.2878 36.4857 85.4374 39.6807 89.5606 39.6807C92.0724 39.6807 93.1967 38.1212 93.1967 38.1212V38.7676C93.1967 39.0719 93.4221 39.2995 93.7217 39.2995H96.7578V24.997H93.7217C93.4221 24.9982 93.1967 25.2649 93.1967 25.5313V25.5313ZM93.1967 34.6978C92.6349 35.535 91.5099 36.2577 90.1606 36.2577C87.7615 36.2577 85.9242 34.7362 85.9242 32.1492C85.9242 29.5626 87.7615 28.0411 90.1606 28.0411C91.4728 28.0411 92.6724 28.8019 93.1967 29.6006V34.6978ZM99.0075 24.9982H102.606V39.3007H99.0075V24.9982V24.9982ZM152.765 24.6174C150.291 24.6174 149.129 26.1397 149.129 26.1397V18.1138H145.53V39.3007H148.567C148.867 39.3007 149.091 39.0343 149.091 38.7679V38.1216C149.091 38.1216 150.254 39.6811 152.727 39.6811C156.814 39.6811 160 36.4868 160 32.1504C160 27.8139 156.814 24.6174 152.765 24.6174V24.6174ZM152.165 36.2193C150.778 36.2193 149.691 35.4973 149.129 34.6598V29.5626C149.691 28.8019 150.891 28.0031 152.165 28.0031C154.564 28.0031 156.401 29.5246 156.401 32.1112C156.401 34.6978 154.565 36.2193 152.165 36.2193ZM143.656 30.8185V39.3387H140.057V31.2365C140.057 28.8786 139.307 27.9271 137.284 27.9271C136.197 27.9271 135.072 28.4979 134.359 29.335V39.3011H130.761V24.9985H133.609C133.909 24.9985 134.134 25.2649 134.134 25.5313V26.14C135.184 25.0365 136.57 24.6178 137.957 24.6178C139.532 24.6178 140.844 25.0749 141.894 25.9877C143.168 27.0528 143.656 28.4219 143.656 30.8185V30.8185ZM122.025 24.6174C119.551 24.6174 118.389 26.1397 118.389 26.1397V18.1138H114.79V39.3007H117.826C118.126 39.3007 118.351 39.0343 118.351 38.7679V38.1216C118.351 38.1216 119.514 39.6811 121.987 39.6811C126.074 39.6811 129.26 36.4868 129.26 32.1504C129.298 27.8135 126.111 24.6174 122.025 24.6174V24.6174ZM121.425 36.2193C120.038 36.2193 118.951 35.4973 118.389 34.6598V29.5626C118.951 28.8019 120.151 28.0031 121.425 28.0031C123.825 28.0031 125.661 29.5246 125.661 32.1112C125.661 34.6978 123.825 36.2193 121.425 36.2193ZM111.678 24.6174C112.765 24.6174 113.328 24.8082 113.328 24.8082V28.1931C113.328 28.1931 110.329 27.166 108.455 29.3346V39.3383H104.855V24.9982H107.892C108.192 24.9982 108.416 25.2645 108.416 25.5309V26.1397C109.092 25.3405 110.554 24.6174 111.678 24.6174V24.6174ZM74.3034 38.0072C74.1162 37.5508 73.9285 37.0565 73.7413 36.6377C73.4409 35.9533 73.141 35.3062 72.8792 34.6978L72.8417 34.6598C70.2547 28.9539 67.4811 23.1727 64.5566 17.4675L64.4443 17.2387C64.1367 16.6469 63.8369 16.0509 63.5451 15.4509C63.1698 14.7657 62.7953 14.0437 62.1954 13.3586C60.9958 11.8371 59.2713 11 57.4347 11C55.5599 11 53.8732 11.8371 52.6366 13.2822C52.0741 13.9666 51.6614 14.6894 51.2869 15.3745C50.9943 15.9741 50.6946 16.5701 50.3877 17.1623L50.275 17.3911C47.3883 23.0963 44.5769 28.8779 41.9902 34.5835L41.9524 34.6591C41.6903 35.2686 41.3899 35.915 41.0899 36.5989C40.9027 37.0177 40.7154 37.4741 40.5282 37.9684C40.0406 39.3756 39.8904 40.707 40.0784 42.0769C40.4907 44.9299 42.3647 47.3254 44.9518 48.3913C45.9266 48.81 46.9389 49 47.9883 49C48.2882 49 48.6628 48.962 48.9631 48.9236C50.2005 48.7716 51.4749 48.3536 52.7122 47.6309C54.2492 46.7558 55.7112 45.501 57.3606 43.6752C59.0099 45.501 60.5094 46.7558 62.0089 47.6309C63.2466 48.3536 64.5207 48.7716 65.7576 48.9236C66.0576 48.9624 66.4329 49 66.7328 49C67.7826 49 68.8319 48.81 69.7689 48.3913C72.3935 47.3254 74.23 44.8919 74.6427 42.0769C74.9404 40.7458 74.7906 39.4151 74.3034 38.0072V38.0072ZM57.3969 39.9851C55.3723 37.3985 54.0601 34.9642 53.6107 32.9107C53.4234 32.0356 53.3856 31.2749 53.4983 30.5901C53.5728 29.9814 53.7983 29.4486 54.0983 28.9923C54.8106 27.9659 56.0101 27.3188 57.3973 27.3188C58.7848 27.3188 60.0218 27.9275 60.6966 28.9923C60.9966 29.4486 61.2213 29.9818 61.297 30.5901C61.4089 31.2753 61.3715 32.0736 61.1842 32.9107C60.733 34.9262 59.4207 37.3608 57.3969 39.9851ZM72.3538 41.7729C72.0916 43.7508 70.7793 45.463 68.9428 46.2238C68.0432 46.6038 67.068 46.7181 66.0939 46.6038C65.1569 46.4894 64.2192 46.185 63.2451 45.615C61.8954 44.8535 60.5461 43.6752 58.9713 41.9249C61.4453 38.8443 62.9448 36.029 63.5073 33.5191C63.7698 32.3396 63.8076 31.2749 63.6945 30.2854C63.5451 29.3346 63.2073 28.4595 62.6826 27.6988C61.5198 25.9865 59.5701 24.9982 57.3965 24.9982C55.2229 24.9982 53.2732 26.0253 52.1112 27.6988C51.5865 28.4595 51.2487 29.3346 51.0989 30.2854C50.9491 31.2749 50.9862 32.3776 51.2861 33.5191C51.8483 36.029 53.3852 38.8819 55.8217 41.9629C54.2848 43.7128 52.8976 44.8923 51.5479 45.653C50.5731 46.2238 49.6365 46.5282 48.6994 46.6418C47.6875 46.7561 46.7123 46.6038 45.8502 46.2618C44.0137 45.501 42.7014 43.7888 42.4393 41.8109C42.3269 40.8602 42.4014 39.9094 42.7767 38.8443C42.8887 38.4636 43.0767 38.0836 43.2639 37.6272C43.5264 37.0185 43.8257 36.3713 44.126 35.725L44.1639 35.6493C46.7502 29.9814 49.5241 24.1998 52.4108 18.5706L52.5231 18.3418C52.8235 17.7718 53.1234 17.1631 53.423 16.5924C53.723 15.9836 54.0601 15.4129 54.4728 14.9181C55.26 14.0061 56.3093 13.511 57.4718 13.511C58.6342 13.511 59.6836 14.0061 60.4708 14.9181C60.8835 15.414 61.2206 15.9847 61.5205 16.5924C61.8209 17.1631 62.1209 17.7718 62.4201 18.3418L62.5328 18.5706C65.3755 24.2232 68.1126 29.9298 70.7426 35.6873V35.7254C71.043 36.3349 71.3051 37.0188 71.6051 37.6284C71.7924 38.084 71.98 38.464 72.0923 38.8447C72.3916 39.8327 72.5039 40.7842 72.3538 41.7729V41.7729Z" fill="black"/>
<rect width="200" height="60" stroke="#D9D9D9"/>
</svg>
