<svg width="200" height="60" viewBox="0 0 200 60" fill="none" xmlns="http://www.w3.org/2000/svg">
<rect width="200" height="60" fill="white"/>
<path fill-rule="evenodd" clip-rule="evenodd" d="M94.6503 26.9337V24.051C94.6503 23.6144 94.9812 23.3203 95.3739 23.3203H108.162C108.572 23.3203 108.899 23.6188 108.899 24.0465V26.5149C108.899 26.9292 108.55 27.4683 107.937 28.3282L101.313 37.8762C103.771 37.8183 106.375 38.1881 108.608 39.4579C109.111 39.7431 109.247 40.1663 109.287 40.5807V43.6549C109.287 44.0782 108.828 44.5683 108.347 44.3144C104.411 42.2337 99.1865 42.0064 94.8356 44.3411C94.3899 44.5817 93.9266 44.096 93.9266 43.6728V40.75C93.9266 40.2822 93.9354 39.4847 94.4031 38.7718L102.077 27.6554H95.396C94.9856 27.6554 94.6591 27.3614 94.6591 26.9292L94.6503 26.9337ZM48.0083 44.9248H44.1163C43.7457 44.9025 43.45 44.6173 43.4191 44.2609V24.1C43.4191 23.6946 43.7589 23.3738 44.1737 23.3738H47.7965C48.176 23.3916 48.4805 23.6812 48.5025 24.051V26.6842H48.5775C49.5218 24.1401 51.3002 22.9505 53.6962 22.9505C56.0923 22.9505 57.6544 24.1401 58.7443 26.6842C59.6886 24.1401 61.8288 22.9505 64.119 22.9505C65.7517 22.9505 67.5344 23.6277 68.6199 25.1559C69.8554 26.8535 69.5995 29.3129 69.5995 31.4782V44.1985C69.5995 44.5995 69.2597 44.9248 68.8449 44.9248H64.9574C64.5691 44.898 64.2602 44.5861 64.2602 44.203V33.5144C64.2602 32.6678 64.3308 30.5426 64.1499 29.7406C63.8586 28.3817 62.9893 28.003 61.8641 28.003C60.9198 28.003 59.9402 28.6401 59.5386 29.6559C59.1371 30.6762 59.1768 32.3693 59.1768 33.5144V44.1985C59.1768 44.5995 58.8414 44.9248 58.4266 44.9248H54.5391C54.1507 44.898 53.8418 44.5861 53.8418 44.203V33.5144C53.8418 31.2644 54.1993 27.9584 51.4414 27.9584C48.6834 27.9584 48.754 31.1842 48.754 33.5144V44.1985C48.754 44.5995 48.4187 44.9248 48.0039 44.9248H48.0083ZM119.908 22.9505C125.68 22.9505 128.804 27.9584 128.804 34.3208C128.804 40.6832 125.354 45.3525 119.908 45.3525C114.463 45.3525 111.158 40.3446 111.158 34.1114C111.158 27.8782 114.282 22.955 119.908 22.955V22.9505ZM119.944 27.0673C117.075 27.0673 116.895 31.0104 116.895 33.4743C116.895 35.9381 116.859 41.1955 119.908 41.1955C122.958 41.1955 123.068 36.954 123.068 34.3653C123.068 32.6678 122.997 30.6317 122.485 29.0188C122.049 27.6198 121.179 27.0673 119.944 27.0673V27.0673ZM136.293 44.9248H132.418C132.03 44.898 131.721 44.5861 131.721 44.203V24.0332C131.748 23.6634 132.07 23.3738 132.462 23.3738H136.072C136.412 23.3916 136.69 23.6233 136.765 23.9396V27.0228H136.84C137.93 24.2649 139.452 22.9505 142.139 22.9505C143.882 22.9505 145.59 23.5876 146.68 25.3252C147.695 26.9381 147.695 29.6515 147.695 31.603V44.2876C147.651 44.6441 147.333 44.9248 146.949 44.9248H143.048C142.687 44.9025 142.4 44.6351 142.356 44.2876V33.3406C142.356 31.1351 142.612 27.9094 139.924 27.9094C138.98 27.9094 138.106 28.5465 137.674 29.5223C137.131 30.752 137.056 31.9817 137.056 33.3406V44.1941C137.047 44.595 136.712 44.9203 136.297 44.9203L136.293 44.9248ZM150.126 43.3252C150.126 42.3094 150.982 41.4896 152.041 41.4896C153.101 41.4896 153.957 42.3139 153.957 43.3252C153.957 44.3366 153.101 45.1609 152.041 45.1609C150.982 45.1609 150.126 44.3366 150.126 43.3252ZM84.457 35.2965C84.457 36.8292 84.4923 38.1035 83.7289 39.4624C83.1111 40.5673 82.1271 41.249 81.0372 41.249C79.5457 41.249 78.672 40.0995 78.672 38.402C78.672 35.0559 81.6461 34.45 84.457 34.45V35.301V35.2965ZM88.3798 44.8713C88.1239 45.103 87.7532 45.1208 87.462 44.9649C86.1691 43.8822 85.9396 43.3787 85.2336 42.3495C83.0979 44.546 81.5843 45.2054 78.8176 45.2054C75.5434 45.2054 72.9929 43.1648 72.9929 39.0837C72.9929 35.8936 74.705 33.7282 77.1408 32.6634C79.25 31.7277 82.1977 31.5584 84.457 31.3045V30.7965C84.457 29.8609 84.532 28.7559 83.9848 27.9495C83.5127 27.2277 82.6036 26.9292 81.8005 26.9292C80.3179 26.9292 78.9985 27.6955 78.672 29.2861C78.6058 29.6381 78.3498 29.9901 77.9968 30.0079L74.2284 29.598C73.9107 29.5267 73.5577 29.2683 73.6459 28.7782C74.5108 24.1579 78.6455 22.7634 82.3433 22.7634C84.2363 22.7634 86.7119 23.2713 88.2033 24.7193C90.0964 26.5059 89.9155 28.8851 89.9155 31.4782V37.5955C89.9155 39.4356 90.6744 40.2421 91.3849 41.2356C91.632 41.5921 91.6893 42.0198 91.3716 42.2782C90.5773 42.951 89.1653 44.1896 88.3887 44.8891L88.3798 44.8802V44.8713ZM33.4597 35.2965C33.4597 36.8292 33.495 38.1035 32.7316 39.4624C32.1138 40.5673 31.1298 41.249 30.0399 41.249C28.5484 41.249 27.6747 40.0995 27.6747 38.402C27.6747 35.0559 30.6488 34.45 33.4597 34.45V35.301V35.2965ZM37.3826 44.8713C37.1266 45.103 36.7516 45.1208 36.4647 44.9649C35.1718 43.8822 34.9424 43.3787 34.2363 42.3495C32.1006 44.546 30.5871 45.2054 27.8247 45.2054C24.5505 45.2054 22 43.1648 22 39.0837C22 35.8936 23.7121 33.7282 26.1479 32.6634C28.2572 31.7277 31.2048 31.5584 33.4641 31.3045V30.7965C33.4641 29.8609 33.5347 28.7559 32.992 27.9495C32.5198 27.2277 31.6108 26.9292 30.8077 26.9292C29.325 26.9292 28.0056 27.6955 27.6791 29.2861C27.6129 29.6381 27.357 29.9901 27.004 30.0079L23.2355 29.598C22.9178 29.5267 22.5648 29.2683 22.6531 28.7782C23.518 24.1579 27.6482 22.7634 31.3505 22.7634C33.2435 22.7634 35.719 23.2713 37.2105 24.7193C39.1035 26.5059 38.9226 28.8851 38.9226 31.4782V37.5955C38.9226 39.4356 39.6816 40.2421 40.392 41.2356C40.6391 41.5921 40.6965 42.0198 40.3788 42.2782C39.5845 42.951 38.1724 44.1896 37.3958 44.8891L37.387 44.8802L37.3826 44.8713ZM163.951 23.405H165.505C165.836 23.405 166.171 23.6946 166.171 24.0198V27.0094C167.256 24.6748 169.013 22.9817 171.713 22.9817C173.818 22.9817 175.398 23.7436 176.554 25.3921C177.781 27.1698 177.997 29.6292 177.997 31.8302V44.2965C177.997 44.6262 177.661 44.9158 177.331 44.9158H175.521C175.19 44.9158 174.855 44.6262 174.855 44.2965V31.8302C174.855 30.6005 174.78 28.9921 174.242 27.8916C173.721 26.7554 172.543 25.8599 171.426 25.8644C170.266 25.8644 168.761 26.7243 167.83 28.0653C166.714 29.6738 166.422 31.4515 166.422 33.4876V44.3188C166.422 44.6262 166.091 44.9203 165.756 44.9203H163.947C163.612 44.9203 163.276 44.6129 163.281 44.301V24.0243C163.281 23.6946 163.612 23.405 163.947 23.405H163.951ZM155.995 17.8579C155.995 16.8332 156.865 16 157.932 16C159 16 159.87 16.8332 159.87 17.8579C159.87 18.8827 159 19.7158 157.932 19.7158C156.865 19.7158 155.995 18.8827 155.995 17.8579V17.8579ZM158.85 44.9203H157.019C156.688 44.9203 156.353 44.6262 156.353 44.3054L156.361 24.1178C156.361 23.7926 156.697 23.4985 157.023 23.4985H158.846C159.177 23.4985 159.512 23.7926 159.512 24.1178V44.3099C159.512 44.6351 159.181 44.9203 158.85 44.9248V44.9203Z" fill="#231F20"/>
<path fill-rule="evenodd" clip-rule="evenodd" d="M102.886 48.683C101.95 47.4755 96.7123 48.1082 94.356 48.3934C93.6411 48.478 93.5308 47.8498 94.175 47.3953C98.3538 44.4325 105.207 45.2879 106.001 46.277C106.804 47.2795 105.789 54.2122 101.875 57.5226C101.271 58.0305 100.701 57.7587 100.966 57.0859C101.849 54.8627 103.821 49.8859 102.886 48.6785V48.683Z" fill="#F8981D"/>
</svg>
