<svg width="200" height="60" viewBox="0 0 200 60" fill="none" xmlns="http://www.w3.org/2000/svg">
<rect width="200" height="60" fill="white"/>
<path d="M71.0997 41.2721H65.0546L63.2053 36.811H53.1304L51.4455 41.2721H45.5L54.5834 18.7409H61.0908L71.0997 41.2721ZM57.9199 24.1249L54.6168 32.8792H61.5537L57.9199 24.1249ZM93.0589 18.7409H97.9475V41.2721H92.3314V27.1985L86.2536 34.2676H85.3951L79.3177 27.1985V41.2719H73.7016V18.7409H78.5902L85.824 27.099L93.0589 18.7409ZM112.177 18.7409C120.402 18.7409 124.629 23.8609 124.629 30.0387C124.629 36.5137 120.534 41.2721 111.549 41.2721H102.234V18.7409H112.177ZM107.85 37.1426H111.516C117.164 37.1426 118.849 33.3095 118.849 30.0053C118.849 26.1397 116.768 22.87 111.45 22.87H107.85V37.1426H107.85ZM135.802 24.0833L128.721 17H154.5V42.7831L147.419 35.7006V24.0833H135.802ZM135.794 25.5026L128.504 32.7937V43H138.707L145.997 35.7089H135.794V25.5026Z" fill="black"/>
</svg>
