<svg width="53" height="38" viewBox="0 0 53 38" fill="none" xmlns="http://www.w3.org/2000/svg">
<rect width="53" height="38" fill="white"/>
<path d="M14.7606 13.3624C14.327 13.8756 13.6331 14.2803 12.9393 14.2225C12.8526 13.5287 13.1923 12.7915 13.5898 12.3361C14.0234 11.8085 14.7823 11.4327 15.3966 11.4038C15.4689 12.1265 15.187 12.8348 14.7606 13.3624ZM15.3894 14.3598C14.3848 14.302 13.5247 14.9308 13.0477 14.9308C12.5635 14.9308 11.8335 14.3887 11.0385 14.4032C10.005 14.4176 9.04373 15.003 8.51613 15.9354C7.43202 17.8 8.23426 20.5609 9.28224 22.0787C9.79538 22.8303 10.4097 23.6542 11.2192 23.6253C11.9853 23.5964 12.2888 23.1266 13.2139 23.1266C14.1463 23.1266 14.4137 23.6253 15.2232 23.6109C16.0615 23.5964 16.5891 22.8592 17.1023 22.1076C17.6877 21.2547 17.9262 20.4236 17.9406 20.3802C17.9262 20.3658 16.3217 19.7514 16.3073 17.9012C16.2928 16.3546 17.5721 15.6174 17.6299 15.574C16.9071 14.5044 15.7797 14.3887 15.3894 14.3598ZM21.193 12.2639V23.5314H22.942V19.6792H25.3632C27.5748 19.6792 29.1287 18.1614 29.1287 15.9643C29.1287 13.7672 27.6037 12.2639 25.421 12.2639H21.193ZM22.942 13.7383H24.9584C26.4762 13.7383 27.3435 14.5477 27.3435 15.9715C27.3435 17.3953 26.4762 18.212 24.9512 18.212H22.942V13.7383ZM32.3232 23.6181C33.4217 23.6181 34.4408 23.0616 34.9033 22.1798H34.9395V23.5314H36.5584V17.9229C36.5584 16.2968 35.2575 15.2488 33.2555 15.2488C31.3981 15.2488 30.0248 16.3112 29.9743 17.7711H31.5498C31.6799 17.0773 32.3232 16.622 33.2049 16.622C34.2746 16.622 34.8744 17.1207 34.8744 18.0386V18.6601L32.6918 18.7902C30.6609 18.9131 29.5623 19.7442 29.5623 21.1897C29.5623 22.6496 30.697 23.6181 32.3232 23.6181ZM32.7929 22.281C31.8606 22.281 31.268 21.8329 31.268 21.1463C31.268 20.438 31.8389 20.0261 32.9303 19.961L34.8744 19.8382V20.4742C34.8744 21.5294 33.9782 22.281 32.7929 22.281ZM38.7194 26.5958C40.4251 26.5958 41.2273 25.9453 41.9284 23.9722L45 15.3572H43.2221L41.1623 22.0136H41.1261L39.0663 15.3572H37.2378L40.201 23.5603L40.042 24.059C39.7746 24.9046 39.341 25.2298 38.5676 25.2298C38.4303 25.2298 38.1629 25.2154 38.0545 25.2009V26.5524C38.1557 26.5813 38.5893 26.5958 38.7194 26.5958Z" fill="black"/>
</svg>
