<svg width="38" height="38" viewBox="0 0 38 38" fill="none" xmlns="http://www.w3.org/2000/svg">
<rect width="38" height="38" fill="white"/>
<path d="M29.6708 21.6674C28.2006 27.5475 22.2394 31.141 16.3326 29.6708C10.4525 28.2006 6.859 22.2394 8.32919 16.3326C9.79938 10.4525 15.7606 6.859 21.6674 8.32919C27.5475 9.79938 31.141 15.7606 29.6708 21.6674Z" fill="#F7931A"/>
<path d="M23.8476 17.4211C24.0655 15.9512 22.9494 15.1617 21.4249 14.6447L21.9147 12.6578L20.7171 12.3588L20.2273 14.2917C19.9007 14.2098 19.5742 14.1284 19.2476 14.0737L19.7374 12.1409L18.5398 11.8418L18.05 13.8286C17.7778 13.7743 17.5327 13.7197 17.2879 13.6382L15.6276 13.2298L15.3011 14.5092L16.1721 14.7272C16.662 14.8361 16.7438 15.1627 16.7438 15.4353L16.1711 17.6937C16.1986 17.6937 16.2529 17.7212 16.3072 17.7212C16.2797 17.7212 16.2254 17.6937 16.1711 17.6937L15.3815 20.8513C15.3272 20.9874 15.1636 21.2294 14.837 21.1504C14.837 21.1779 13.966 20.9324 13.966 20.9324L13.3672 22.3211L14.946 22.6993C15.2451 22.7811 15.5176 22.8625 15.817 22.9172L15.3272 24.9315L16.5248 25.2306L17.0146 23.2438L17.9709 23.4926L17.4811 25.4795L18.6787 25.7785L19.1685 23.7642C21.2372 24.1423 22.7617 24.0093 23.4151 22.1314C23.9325 20.6344 23.3876 19.7596 22.299 19.1914C23.1157 19.0281 23.6877 18.5108 23.8507 17.4221L23.8476 17.4211ZM21.0983 21.3133C20.7202 22.8103 18.2129 21.9939 17.3962 21.8031L18.0493 19.1357C18.866 19.3261 21.4792 19.7345 21.0983 21.3133ZM21.4764 17.4207C21.1499 18.782 19.0266 18.1014 18.346 17.9106L18.9448 15.4879C19.6254 15.6783 21.8301 15.9777 21.4764 17.4207V17.4207Z" fill="white"/>
</svg>
