<svg width="200" height="60" viewBox="0 0 200 60" fill="none" xmlns="http://www.w3.org/2000/svg">
<rect width="200" height="60" fill="white"/>
<path d="M35.5146 24.0737L30.0073 27.6473L35.5146 31.221L30.0073 34.7947L24.5 31.1912L30.0073 27.6176L24.5 24.0737L30.0073 20.5L35.5146 24.0737ZM29.978 35.9263L35.4854 32.3527L40.9927 35.9263L35.4854 39.5L29.978 35.9263ZM35.5146 31.1912L41.022 27.6176L35.5146 24.0737L40.9927 20.5L46.5 24.0737L40.9927 27.6473L46.5 31.221L40.9927 34.7947L35.5146 31.1912Z" fill="black"/>
<path d="M63.5 17.6531H70.769C75.4078 17.6531 79.2336 20.5461 79.2336 27.1587V28.5535C79.2336 35.2177 75.6469 38.214 70.9125 38.214H63.5V17.6531ZM67.5649 21.3727V34.4428H70.6734C73.3036 34.4428 75.073 32.583 75.073 28.4502V27.3653C75.073 23.2325 73.2079 21.3727 70.5299 21.3727H67.5649V21.3727ZM81.3856 21.5793H84.6375L85.1635 25.4539C85.7852 22.8192 87.3634 21.4244 90.2327 21.4244H91.237V25.8672H89.5632C86.2635 25.8672 85.4505 27.107 85.4505 30.6199V38.2657H81.4334V21.5793H81.3856V21.5793ZM92.05 30.2583V29.7934C92.05 24.214 95.3497 21.1661 99.845 21.1661C104.436 21.1661 107.64 24.214 107.64 29.7934V30.2583C107.64 35.7343 104.532 38.679 99.845 38.679C94.8715 38.6273 92.05 35.7343 92.05 30.2583V30.2583ZM103.527 30.2066V29.7934C103.527 26.6937 102.093 24.8339 99.7972 24.8339C97.5495 24.8339 96.067 26.5387 96.067 29.7934V30.2066C96.067 33.203 97.5017 34.9077 99.7972 34.9077C102.093 34.8561 103.527 33.203 103.527 30.2066ZM109.744 21.5793H113.092L113.474 24.7306C114.287 22.6125 116.009 21.1661 118.544 21.1661C122.465 21.1661 125.047 24.214 125.047 29.845V30.31C125.047 35.786 122.178 38.679 118.544 38.679C116.105 38.679 114.431 37.4908 113.618 35.5793V44H109.696L109.744 21.5793V21.5793ZM120.982 30.2066V29.845C120.982 26.5387 119.404 24.8856 117.3 24.8856C115.053 24.8856 113.57 26.7454 113.57 29.845V30.155C113.57 33.0996 115.005 34.9594 117.252 34.9594C119.548 34.9077 120.982 33.3063 120.982 30.2066ZM130.977 35.1661L130.643 38.214H127.199V16H131.121V24.524C131.982 22.3542 133.703 21.1661 136.142 21.1661C139.825 21.2177 142.55 23.9557 142.55 29.4834V30C142.55 35.5277 139.968 38.679 136.047 38.679C133.464 38.6273 131.79 37.3358 130.977 35.1661V35.1661ZM138.438 30V29.5867C138.438 26.5387 136.907 24.8339 134.755 24.8339C132.556 24.8339 131.025 26.7454 131.025 29.6384V30C131.025 33.0996 132.508 34.9077 134.708 34.9077C137.051 34.9077 138.438 33.3063 138.438 30V30ZM144.272 30.2583V29.7934C144.272 24.214 147.572 21.1661 152.067 21.1661C156.658 21.1661 159.862 24.214 159.862 29.7934V30.2583C159.862 35.7343 156.706 38.679 152.067 38.679C147.094 38.6273 144.272 35.7343 144.272 30.2583V30.2583ZM155.797 30.2066V29.7934C155.797 26.6937 154.363 24.8339 152.067 24.8339C149.819 24.8339 148.337 26.5387 148.337 29.7934V30.2066C148.337 33.203 149.772 34.9077 152.067 34.9077C154.363 34.8561 155.797 33.203 155.797 30.2066ZM165.123 29.5867L159.719 21.5793H164.357L167.466 26.5904L170.622 21.5793H175.213L169.713 29.5351L175.5 38.214H170.957L167.418 32.6863L163.975 38.214H159.24L165.123 29.5867Z" fill="black"/>
</svg>
