<svg width="200" height="60" viewBox="0 0 200 60" fill="none" xmlns="http://www.w3.org/2000/svg">
<g opacity="0.7">
<rect width="200" height="60" fill="white"/>
<path d="M138.682 43.5571L134.863 39.2163L131.078 43.5571H123.114L130.898 34.692L123.114 25.8244H131.327L135.184 30.1322L138.896 25.8244H146.821L139.076 34.6548L146.929 43.5571H138.682ZM107.82 43.5571V15.6226H123.114V21.8491H114.298V25.8244H123.114V31.8159H114.298V37.3149H123.114V43.5571H107.82Z" fill="black"/>
<path d="M101.057 15.6226V26.9772H100.985C99.5471 25.3245 97.75 24.7483 95.6656 24.7483C91.395 24.7483 88.1777 27.6539 87.0484 31.4919C85.7602 27.262 82.4385 24.6694 77.5139 24.6694C73.5137 24.6694 70.3561 26.4641 68.7066 29.3896V25.7546H60.4396V21.8074H69.4623V15.6239H53.0703V43.367H60.4396V31.7057H67.7849C67.5586 32.6024 67.4455 33.524 67.4482 34.4489C67.4482 40.2335 71.8688 44.2986 77.5126 44.2986C82.2568 44.2986 85.3859 42.0693 87.0393 38.0104H80.7235C79.8698 39.2322 79.2212 39.5925 77.5133 39.5925C75.5336 39.5925 73.8251 37.8647 73.8251 35.8189H86.6852C87.243 40.4145 90.8235 44.377 95.7378 44.377C97.8575 44.377 99.7983 43.3346 100.985 41.5736H101.056V43.3711H107.554V15.6239H101.057V15.6226ZM74.03 31.7887C74.4407 30.0256 75.8074 28.874 77.5133 28.874C79.3918 28.874 80.6891 29.9903 81.0296 31.7887H74.03ZM97.114 39.145C94.7199 39.145 93.2319 36.9144 93.2319 34.5847C93.2319 32.0938 94.5267 29.7009 97.114 29.7009C99.7987 29.7009 100.869 32.0951 100.869 34.5847C100.869 36.9443 99.736 39.145 97.114 39.145Z" fill="black"/>
</g>
</svg>
