<svg width="38" height="38" viewBox="0 0 38 38" fill="none" xmlns="http://www.w3.org/2000/svg">
<rect width="37.9984" height="38" fill="white"/>
<path d="M29.8113 17.0146H19.2266V21.2465H25.2906C25.0412 22.6062 24.2305 23.8283 23.0458 24.5922L26.6624 27.3421C28.7825 25.4325 29.9984 22.5909 29.9984 19.2451C29.9984 18.4966 29.936 17.748 29.8113 17.0146Z" fill="#4285F4"/>
<path d="M23.0537 24.5916C22.0405 25.2638 20.7466 25.6458 19.2345 25.6458C16.3038 25.6458 13.8252 23.7055 12.9366 21.1084L9.21094 23.9347C11.1128 27.6624 14.9944 29.9998 19.2345 29.9998C22.2587 29.9998 24.8153 29.0221 26.6703 27.3416L23.0537 24.5916Z" fill="#34A853"/>
<path d="M9.20423 14.0659C7.59859 17.1672 7.59859 20.8338 9.20423 23.9351L12.9299 21.0935C12.4623 19.7338 12.4623 18.2519 12.9299 16.8769L9.20423 14.0659Z" fill="#FBBC04"/>
<path d="M19.2345 12.3547C20.8401 12.3242 22.3834 12.92 23.537 14.0047L26.7327 10.8728C24.7061 8.99369 22.0249 7.97011 19.2345 8.00066C14.9944 8.00066 11.1128 10.3534 9.21094 14.0658L12.9366 16.9074C13.8252 14.2949 16.3038 12.3547 19.2345 12.3547Z" fill="#EA4335"/>
</svg>
