<svg width="24" height="24" viewBox="0 0 24 24" fill="none" xmlns="http://www.w3.org/2000/svg">
<path d="M14.3863 6.38157C13.8989 5.61585 13.4904 4.58021 13.2848 4.01407C13.3596 3.99067 13.4244 3.94744 13.4703 3.8903C13.5161 3.83315 13.5408 3.7649 13.5408 3.69492V2.33898C13.5408 2.24908 13.5003 2.16286 13.4282 2.09929C13.3561 2.03571 13.2582 2 13.1562 2H10.8485C10.7465 2 10.6487 2.03571 10.5766 2.09929C10.5045 2.16286 10.4639 2.24908 10.4639 2.33898V3.69492C10.464 3.76492 10.4887 3.83319 10.5345 3.89034C10.5804 3.94749 10.6452 3.99073 10.7201 4.01411C10.5147 4.57992 10.1065 5.61492 9.61846 6.38157C9.47024 6.61462 9.32447 6.82992 9.18351 7.03835C8.63221 7.85292 8.15625 8.55648 8.15625 9.45763V14.2034C8.15625 14.7233 8.29639 15.1348 8.43192 15.5328C8.58394 15.9791 8.74115 16.4406 8.74115 17.1305C8.74115 17.8047 8.59644 18.123 8.44332 18.46C8.30216 18.7706 8.15625 19.0916 8.15625 19.6271C8.15625 20.2064 8.27048 20.7518 8.47784 21.1631C8.84505 21.8913 9.39788 22 9.69471 22C10.2194 22 10.6015 21.7694 10.8485 21.5461C11.0956 21.7694 11.4777 22 12.0024 22C12.5271 22 12.9092 21.7694 13.1562 21.5461C13.4033 21.7694 13.7854 22 14.3101 22C14.6069 22 15.1597 21.8913 15.5269 21.1631C15.7343 20.7518 15.8485 20.2064 15.8485 19.6271C15.8485 19.0916 15.7026 18.7706 15.5615 18.46C15.4083 18.123 15.2636 17.8047 15.2636 17.1305C15.2636 16.4406 15.4208 15.9791 15.5729 15.5328C15.7084 15.1348 15.8485 14.7233 15.8485 14.2034V9.45763C15.8485 8.55648 15.3726 7.85292 14.8213 7.03814C14.6803 6.82992 14.5345 6.61441 14.3863 6.38157ZM11.2332 2.67797H12.7716V3.35593H11.2332V2.67797ZM9.84418 7.38559C9.98773 7.17343 10.1361 6.95407 10.2894 6.71335C10.8759 5.79182 11.3379 4.55555 11.5198 4.03398H12.4849C12.6669 4.55555 13.1289 5.79182 13.7154 6.71335C13.8686 6.95407 14.017 7.17343 14.1606 7.38559C14.607 8.04542 14.9488 8.55225 15.0487 9.11864H8.9561C9.05596 8.55216 9.39774 8.04534 9.84418 7.38559ZM8.92548 13.8644V9.79661H15.0793V13.8644H8.92548ZM14.3101 21.322C13.7938 21.322 13.502 20.8344 13.5002 20.8314C13.4686 20.7751 13.4198 20.7276 13.3592 20.6943C13.2987 20.6611 13.2288 20.6433 13.1574 20.6431C13.0861 20.6429 13.0161 20.6603 12.9553 20.6932C12.8945 20.7261 12.8453 20.7733 12.8133 20.8295C12.8105 20.8344 12.5186 21.322 12.0024 21.322C11.4861 21.322 11.1943 20.8344 11.1925 20.8314C11.1606 20.7751 11.1115 20.7278 11.0507 20.6947C10.99 20.6616 10.92 20.6441 10.8485 20.6441C10.7771 20.6441 10.7071 20.6616 10.6464 20.6947C10.5856 20.7278 10.5365 20.7751 10.5046 20.8314C10.5018 20.8364 10.2118 21.322 9.69471 21.322C9.27057 21.322 8.92548 20.5617 8.92548 19.6271C8.92548 19.2223 9.02779 18.9972 9.15735 18.7122C9.32283 18.3481 9.51038 17.9354 9.51038 17.1305C9.51038 16.3411 9.32889 15.8081 9.1687 15.3378C9.07524 15.0634 8.99163 14.8153 8.9513 14.5424H15.0535C15.0132 14.8153 14.9295 15.0636 14.8361 15.3378C14.6759 15.8082 14.4944 16.3411 14.4944 17.1305C14.4944 17.9356 14.6819 18.3481 14.8474 18.7122C14.977 18.9972 15.0793 19.2223 15.0793 19.6271C15.0793 20.5617 14.7342 21.322 14.3101 21.322Z" fill="#60A171"/>
<path d="M11.9994 10.4746C11.6951 10.4746 11.3977 10.5541 11.1447 10.7031C10.8917 10.8521 10.6945 11.0639 10.578 11.3116C10.4616 11.5594 10.4311 11.832 10.4905 12.0951C10.5499 12.3581 10.6964 12.5997 10.9115 12.7893C11.1267 12.979 11.4008 13.1081 11.6993 13.1604C11.9977 13.2127 12.307 13.1859 12.5881 13.0833C12.8693 12.9806 13.1095 12.8068 13.2786 12.5839C13.4476 12.3609 13.5379 12.0987 13.5379 11.8305C13.5374 11.471 13.3752 11.1264 13.0867 10.8722C12.7983 10.618 12.4073 10.475 11.9994 10.4746ZM11.9994 12.5085C11.8473 12.5085 11.6985 12.4687 11.572 12.3943C11.4455 12.3198 11.3469 12.2139 11.2887 12.09C11.2305 11.9661 11.2153 11.8298 11.2449 11.6983C11.2746 11.5668 11.3479 11.446 11.4555 11.3511C11.563 11.2563 11.7001 11.1918 11.8493 11.1656C11.9985 11.1394 12.1532 11.1529 12.2938 11.2042C12.4343 11.2555 12.5545 11.3424 12.639 11.4539C12.7235 11.5654 12.7686 11.6965 12.7686 11.8305C12.7684 12.0103 12.6873 12.1826 12.5431 12.3097C12.3988 12.4368 12.2033 12.5083 11.9994 12.5085Z" fill="black"/>
<path d="M22.0008 14.2034V9.45763C22.0008 8.55648 21.5248 7.85292 20.9735 7.03814C20.8326 6.82979 20.6868 6.61441 20.5386 6.38136C20.0512 5.61564 19.6427 4.58 19.4371 4.01386C19.5119 3.99048 19.5766 3.94727 19.6225 3.89017C19.6683 3.83307 19.693 3.76487 19.6931 3.69492V2.33898C19.6931 2.24908 19.6526 2.16286 19.5805 2.09929C19.5083 2.03571 19.4105 2 19.3085 2H17.0008C16.8988 2 16.801 2.03571 16.7288 2.09929C16.6567 2.16286 16.6162 2.24908 16.6162 2.33898V3.69492C16.6163 3.7649 16.6409 3.83315 16.6868 3.8903C16.7326 3.94744 16.7974 3.99067 16.8723 4.01407C16.6666 4.58021 16.2581 5.61576 15.7708 6.38153C15.6953 6.50017 15.6142 6.62398 15.5156 6.77136L16.1783 7.11564C16.2797 6.96398 16.3634 6.83597 16.4416 6.71309C17.0282 5.79157 17.4901 4.5553 17.6721 4.03373H18.6372C18.8192 4.5553 19.2811 5.79157 19.8677 6.71309C20.0209 6.95381 20.1693 7.17318 20.3129 7.38534C20.7593 8.04517 21.1011 8.55199 21.2009 9.11839H16.6162V9.79636H21.2316V13.8642H16.6162V14.5421H21.2058C21.1654 14.815 21.0818 15.0633 20.9883 15.3376C20.8282 15.8079 20.6467 16.3408 20.6467 17.1302C20.6467 17.9353 20.8342 18.3478 20.9997 18.7119C21.1293 18.9972 21.2316 19.2223 21.2316 19.6271C21.2316 20.5617 20.8865 21.322 20.4623 21.322C19.9461 21.322 19.6543 20.8344 19.6525 20.8314C19.6209 20.7751 19.572 20.7276 19.5115 20.6943C19.4509 20.6611 19.381 20.6433 19.3097 20.6431C19.2383 20.6429 19.1683 20.6603 19.1076 20.6932C19.0468 20.7261 18.9976 20.7733 18.9656 20.8295C18.9627 20.8344 18.6709 21.322 18.1547 21.322C17.6384 21.322 17.3466 20.8344 17.3448 20.8314C17.3129 20.7751 17.2638 20.7278 17.203 20.6947C17.1422 20.6616 17.0722 20.6441 17.0008 20.6441C16.9294 20.6441 16.8594 20.6616 16.7986 20.6947C16.7379 20.7278 16.6888 20.7751 16.6568 20.8314C16.6549 20.8347 16.4528 21.1682 16.0991 21.2826L16.3641 21.9191C16.6055 21.8385 16.8234 21.7114 17.0019 21.5471C17.249 21.7701 17.6306 22 18.1547 22C18.6793 22 19.0615 21.7694 19.3085 21.5461C19.5555 21.7694 19.9377 22 20.4623 22C20.7592 22 21.312 21.8913 21.6792 21.1631C21.8866 20.7518 22.0008 20.2064 22.0008 19.6271C22.0008 19.0916 21.8549 18.7706 21.7137 18.46C21.5606 18.123 21.4159 17.8047 21.4159 17.1305C21.4159 16.4406 21.5731 15.9791 21.7251 15.5328C21.8607 15.1348 22.0008 14.7233 22.0008 14.2034ZM17.3854 2.67797H18.9239V3.35593H17.3854V2.67797Z" fill="black"/>
<path d="M19.6941 11.8305C19.6941 11.5624 19.6039 11.3002 19.4348 11.0772C19.2658 10.8542 19.0255 10.6805 18.7444 10.5778C18.4633 10.4752 18.1539 10.4483 17.8555 10.5007C17.5571 10.553 17.2829 10.6821 17.0678 10.8718C16.8526 11.0614 16.7061 11.303 16.6467 11.566C16.5874 11.829 16.6179 12.1017 16.7343 12.3494C16.8507 12.5972 17.0479 12.809 17.3009 12.958C17.5539 13.107 17.8514 13.1865 18.1556 13.1865C18.5635 13.1861 18.9546 13.0431 19.243 12.7889C19.5314 12.5347 19.6936 12.19 19.6941 11.8305ZM17.3864 11.8305C17.3864 11.6965 17.4315 11.5654 17.5161 11.4539C17.6006 11.3424 17.7207 11.2555 17.8613 11.2042C18.0018 11.1529 18.1565 11.1394 18.3057 11.1656C18.4549 11.1918 18.592 11.2563 18.6996 11.3511C18.8072 11.446 18.8804 11.5668 18.9101 11.6983C18.9398 11.8298 18.9245 11.9661 18.8663 12.09C18.8081 12.2139 18.7095 12.3198 18.583 12.3943C18.4565 12.4687 18.3078 12.5085 18.1556 12.5085C17.9517 12.5083 17.7562 12.4368 17.612 12.3097C17.4678 12.1826 17.3867 12.0103 17.3864 11.8305Z" fill="black"/>
<path d="M7.34397 20.8315C7.31203 20.7752 7.26292 20.7278 7.20217 20.6947C7.14141 20.6617 7.0714 20.6441 6.99998 20.6441C6.92856 20.6441 6.85856 20.6617 6.7978 20.6947C6.73704 20.7278 6.68794 20.7752 6.65599 20.8315C6.65321 20.8364 6.36321 21.322 5.84614 21.322C5.32989 21.322 5.03807 20.8344 5.03629 20.8314C5.00466 20.7751 4.95583 20.7276 4.89528 20.6943C4.83473 20.6611 4.76485 20.6433 4.6935 20.6431C4.62214 20.6429 4.55214 20.6603 4.49135 20.6932C4.43056 20.7261 4.38139 20.7733 4.34937 20.8295C4.34653 20.8344 4.0547 21.322 3.53846 21.322C3.11432 21.322 2.76923 20.5617 2.76923 19.6271C2.76923 19.2223 2.87154 18.9972 3.0011 18.7122C3.16658 18.3481 3.35413 17.9354 3.35413 17.1305C3.35413 16.3411 3.17264 15.8081 3.01245 15.3378C2.91899 15.0636 2.83538 14.8153 2.79505 14.5424H7.3846V13.8644H2.76923V9.79661H7.3846V9.11864H2.79985C2.89971 8.55216 3.24149 8.04534 3.68793 7.38559C3.83148 7.17343 3.9799 6.95407 4.13312 6.71335C4.71965 5.79182 5.18162 4.55555 5.36359 4.03398H6.32869C6.51066 4.55555 6.97263 5.79182 7.55945 6.71339C7.63767 6.83627 7.72133 6.96407 7.82272 7.11593L8.48541 6.77165C8.38681 6.62428 8.30575 6.50047 8.23032 6.38182C7.74291 5.6161 7.33441 4.58047 7.12878 4.01432C7.20362 3.99088 7.26839 3.94759 7.3142 3.8904C7.36001 3.83321 7.3846 3.76492 7.3846 3.69492V2.33898C7.3846 2.24908 7.34408 2.16286 7.27195 2.09929C7.19982 2.03571 7.10199 2 6.99998 2H4.6923C4.59029 2 4.49247 2.03571 4.42034 2.09929C4.34821 2.16286 4.30768 2.24908 4.30768 2.33898V3.69492C4.30776 3.7649 4.33242 3.83315 4.37826 3.8903C4.42411 3.94744 4.4889 3.99067 4.56374 4.01407C4.35812 4.58021 3.94961 5.61576 3.46221 6.38157C3.31399 6.61462 3.16822 6.82992 3.02726 7.03835C2.47596 7.85292 2 8.55648 2 9.45763V14.2034C2 14.7233 2.14014 15.1348 2.27567 15.5328C2.42769 15.9791 2.5849 16.4406 2.5849 17.1305C2.5849 17.8047 2.44019 18.123 2.28707 18.46C2.14591 18.7706 2 19.0916 2 19.6271C2 20.2064 2.11423 20.7518 2.32159 21.1631C2.6888 21.8913 3.24163 22 3.53846 22C4.06312 22 4.44528 21.7694 4.6923 21.5461C4.93932 21.7694 5.32148 22 5.84614 22C6.37018 22 6.75181 21.7701 6.99893 21.5471C7.17742 21.7115 7.39533 21.8386 7.63671 21.9192L7.90171 21.2826C7.54402 21.167 7.34489 20.8329 7.34397 20.8315ZM5.07691 2.67797H6.61537V3.35593H5.07691V2.67797Z" fill="black"/>
<path d="M4.30469 11.8305C4.30469 12.0987 4.39492 12.3609 4.56396 12.5839C4.73301 12.8068 4.97329 12.9806 5.2544 13.0833C5.53552 13.1859 5.84485 13.2127 6.14328 13.1604C6.44171 13.1081 6.71584 12.979 6.931 12.7893C7.14615 12.5997 7.29268 12.3581 7.35204 12.0951C7.4114 11.832 7.38093 11.5594 7.26449 11.3116C7.14805 11.0639 6.95086 10.8521 6.69786 10.7031C6.44487 10.5541 6.14742 10.4746 5.84314 10.4746C5.43526 10.475 5.04421 10.618 4.7558 10.8722C4.46738 11.1264 4.30515 11.471 4.30469 11.8305ZM6.61237 11.8305C6.61237 11.9646 6.56726 12.0957 6.48273 12.2072C6.39821 12.3187 6.27807 12.4056 6.13752 12.4569C5.99696 12.5082 5.84229 12.5216 5.69307 12.4955C5.54386 12.4693 5.4068 12.4048 5.29922 12.3099C5.19164 12.2151 5.11838 12.0943 5.0887 11.9628C5.05902 11.8313 5.07425 11.695 5.13247 11.5711C5.19069 11.4472 5.28928 11.3413 5.41578 11.2668C5.54228 11.1923 5.691 11.1526 5.84314 11.1526C6.04708 11.1528 6.2426 11.2243 6.3868 11.3514C6.53101 11.4785 6.61213 11.6508 6.61237 11.8305Z" fill="black"/>
</svg>
