<svg width="24" height="24" viewBox="0 0 24 24" fill="none" xmlns="http://www.w3.org/2000/svg">
<path d="M22 13.2739C22 11.8694 21.319 10.5281 20.1784 9.68613C19.9458 9.51387 19.6574 9.41935 19.3668 9.41935C19.0029 9.41935 18.6619 9.56484 18.4116 9.81226C18.3648 9.77323 18.3223 9.73032 18.2739 9.69323C18.0948 9.55645 17.88 9.47516 17.6594 9.44161L17.8016 7.87742C17.8048 7.84 17.8065 7.80226 17.8065 7.76452C17.8065 7.07613 17.2465 6.51613 16.5581 6.51613H16.4742C15.7858 6.51613 15.2258 7.07613 15.2258 7.76452C15.2258 7.80226 15.2274 7.84 15.231 7.87774L15.3739 9.44871C15.1694 9.48742 14.9716 9.56645 14.8045 9.69097C14.7468 9.73419 14.6955 9.78387 14.64 9.82935C14.6113 9.79968 14.581 9.77194 14.5497 9.74516C14.5681 9.63774 14.5806 9.52903 14.5806 9.41935C14.5806 9.00968 14.4529 8.61774 14.2161 8.29032C14.4529 7.9629 14.5806 7.57129 14.5806 7.16129C14.5806 6.05677 13.6461 5.16161 12.5326 5.22935C12.3255 4.63581 11.8426 4.18839 11.249 4.01581C10.8561 3.52581 10.2639 3.25387 9.62935 3.29387C9.36226 2.52839 8.63903 2 7.80645 2C7.10806 2 6.47226 2.37355 6.12968 2.96871C5.27548 2.99742 4.5371 3.60032 4.32548 4.42161C3.32677 4.79419 2.64516 5.76097 2.64516 6.83871C2.64516 7.7029 3.07032 8.4929 3.77387 8.97032C3.66774 9.21258 3.6129 9.47452 3.6129 9.74194C3.6129 10.3226 3.87097 10.8623 4.31387 11.2277C4.27677 11.3774 4.25806 11.5281 4.25806 11.6774C4.25806 12.6658 5.00323 13.4839 5.96129 13.599L6.67484 15.5974C6.30935 15.8668 5.99806 16.2039 5.75839 16.591L4.06839 16.2155C4.00419 16.2006 3.93806 16.1935 3.87161 16.1935C3.37323 16.1935 2.96774 16.599 2.96774 17.0974V17.2252C2.96774 17.3155 2.98516 17.4013 3.01 17.4839H2.96774C2.43419 17.4839 2 17.9181 2 18.4516C2 18.9852 2.43419 19.4194 2.96774 19.4194H3.01C2.98516 19.5019 2.96774 19.5877 2.96774 19.6781V19.8058C2.96774 20.3042 3.37323 20.7097 3.87161 20.7097C3.93806 20.7097 4.00419 20.7026 4.06774 20.6881L5.75839 20.3123C6.38452 21.3232 7.50032 22 8.77419 22H8.85C9.02935 22 9.21097 21.9861 9.38935 21.9587L20.451 20.2571C21.3484 20.1187 22 19.3597 22 18.4516C22 17.7255 21.5797 17.1006 20.9539 16.8061C21.6223 16.0077 22 14.9948 22 13.9519V13.2739ZM17.8816 10.2058C18.8445 10.9419 19.4194 12.1145 19.4194 13.3432V14.5281C19.4194 15.1894 19.2545 15.8368 18.9439 16.4145L16.3571 16.0165C16.2506 15.5484 16.1935 15.0703 16.1935 14.5903V13.2806C16.1935 12.9555 16.2261 12.6306 16.2755 12.3087C16.3545 12.3155 16.4332 12.3226 16.5161 12.3226C17.4358 12.3226 18.129 11.9065 18.129 11.3548C18.129 11.0503 17.9184 10.78 17.5535 10.6026L17.601 10.0806C17.7016 10.101 17.7984 10.1416 17.8816 10.2058ZM16.4742 7.16129H16.5584C16.891 7.16129 17.1616 7.43194 17.1616 7.76452C17.1616 7.7829 17.161 7.80129 17.159 7.81936L16.8661 11.041L17.1123 11.12C17.3948 11.2103 17.4839 11.3294 17.4839 11.3548C17.4839 11.4352 17.1406 11.6774 16.5161 11.6774C15.8916 11.6774 15.5484 11.4352 15.5484 11.3548C15.5484 11.3294 15.6374 11.2103 15.92 11.1197L16.1661 11.0406L15.8732 7.81936C15.8716 7.80097 15.871 7.78258 15.871 7.76452C15.871 7.43194 16.1416 7.16129 16.4742 7.16129ZM15.4323 10.0913L15.4787 10.6026C15.1139 10.78 14.9032 11.0503 14.9032 11.3548C14.9032 11.7103 15.1932 12.0074 15.6439 12.1752C15.5861 12.5413 15.5484 12.911 15.5484 13.2806V14.5903C15.5484 15.0335 15.591 15.4761 15.6735 15.9113L13.7719 15.6187C13.6684 15.2642 13.6129 14.8987 13.6129 14.5277V13.3429C13.6129 12.1161 14.2026 10.9439 15.1903 10.2077C15.2623 10.1542 15.3452 10.1148 15.4323 10.0913ZM11.9461 15.3377C11.771 14.8945 11.6774 14.4303 11.6774 13.9519V13.2735C11.6774 12.0729 12.2606 10.9258 13.2371 10.2045C13.3597 10.1142 13.5119 10.0645 13.6655 10.0645C13.8603 10.0645 14.0397 10.1429 14.171 10.2742C13.4103 11.1077 12.9677 12.2026 12.9677 13.3432V14.5281C12.9677 14.8606 13.0074 15.1897 13.0794 15.5123L11.9461 15.3377ZM11.9765 5.64548L12.0352 5.97742L12.3642 5.90419C12.4642 5.88194 12.5561 5.87097 12.6452 5.87097C13.3568 5.87097 13.9355 6.44968 13.9355 7.16129C13.9355 7.50032 13.8039 7.82097 13.5652 8.06419L13.3432 8.29032L13.5652 8.51645C13.8039 8.75968 13.9355 9.08032 13.9355 9.41935C13.9355 9.42903 13.9335 9.43871 13.9335 9.44871C13.8461 9.43129 13.7571 9.41935 13.6655 9.41935C13.3748 9.41935 13.0865 9.51387 12.8539 9.68581C12.2668 10.119 11.8045 10.6858 11.491 11.3242C11.3687 10.9435 11.2403 10.579 11.1081 10.2329C11.4065 8.65677 12.5132 7.74452 12.5245 7.73516L12.3226 7.48387L12.121 7.23194C12.0761 7.26774 11.2035 7.98032 10.7135 9.26581C10.0423 7.72452 9.40871 6.72742 9.36806 6.66419L8.82516 7.01323C8.83387 7.02645 9.32581 7.80032 9.89839 9.03226C8.93355 8.66903 7.8371 8.76935 7.77419 8.77581L7.83839 9.41774C8.32355 9.36903 9.69774 9.39258 10.3397 10.0477C10.5658 10.6035 10.7887 11.2129 10.9855 11.8658C10.0048 11.3629 8.83484 11.3548 8.77419 11.3548V12C8.78935 12 10.2255 12.0097 11.0755 12.6855C11.049 12.8797 11.0323 13.0758 11.0323 13.2739V13.9523C11.0323 14.3881 11.0994 14.8142 11.2239 15.2271L9.38935 14.9448C9.29258 14.93 9.19484 14.92 9.09677 14.9129C8.38516 14.9129 7.80645 14.3297 7.80645 13.6132C7.80645 13.4629 7.83645 13.3087 7.89516 13.1542L7.98935 12.9074L7.76581 12.7661C7.38742 12.5268 7.16129 12.12 7.16129 11.6774C7.16129 11.4235 7.23581 11.1774 7.37677 10.9652L7.57774 10.6632L7.25452 10.499C6.6 10.1661 6.19355 9.50548 6.19355 8.77419C6.19355 7.91581 6.77032 7.15129 7.59645 6.91484L7.79677 6.85742L7.82677 6.65129C7.91871 6.02258 8.46484 5.54839 9.09677 5.54839C9.10871 5.54839 9.12032 5.55097 9.13194 5.55258C9.15452 5.55581 9.17742 5.55871 9.20032 5.56032L9.43161 5.57903L9.52258 5.36548C9.72613 4.88871 10.1919 4.58065 10.7097 4.58065C11.3348 4.58065 11.8674 5.02839 11.9765 5.64548ZM6.42097 12.9677H6.19355C5.48194 12.9677 4.90323 12.389 4.90323 11.6774C4.90323 11.5268 4.93323 11.3726 4.99194 11.2187L5.08645 10.9719L4.8629 10.8306C4.48419 10.5913 4.25806 10.1845 4.25806 9.74194C4.25806 9.48806 4.33258 9.24193 4.47355 9.02968L4.67452 8.72774L4.35129 8.56355C3.69677 8.23064 3.29032 7.57 3.29032 6.83871C3.29032 5.98032 3.8671 5.21581 4.6929 4.97935L4.89323 4.92194L4.92323 4.71581C5.01548 4.0871 5.56161 3.6129 6.19355 3.6129C6.20581 3.6129 6.21774 3.61548 6.22968 3.6171C6.25161 3.62 6.27355 3.6229 6.29613 3.62484L6.52839 3.64419L6.61968 3.42968C6.8229 2.95323 7.28871 2.64516 7.80645 2.64516C8.43161 2.64516 8.96419 3.0929 9.07323 3.71L9.13194 4.04194L9.46097 3.96871C9.56097 3.94645 9.6529 3.93548 9.74194 3.93548C9.89032 3.93548 10.0313 3.96806 10.1661 4.01516C9.69194 4.15387 9.28355 4.46871 9.0329 4.90419C8.17871 4.9329 7.44032 5.53581 7.22871 6.3571C6.23 6.72968 5.54839 7.69645 5.54839 8.77419C5.54839 9.63839 5.97355 10.4284 6.6771 10.9058C6.57097 11.1481 6.51613 11.41 6.51613 11.6774C6.51613 12.2581 6.77419 12.7977 7.2171 13.1635C7.18 13.3132 7.16129 13.4635 7.16129 13.6129C7.16129 14.1797 7.40516 14.689 7.79129 15.0445C7.59968 15.1 7.41548 15.1719 7.23871 15.2574L6.42097 12.9677ZM3.6129 17.2252V17.0974C3.6129 16.9355 3.76968 16.8106 3.92806 16.8448L5.46323 17.1861C5.42581 17.2835 5.39226 17.3826 5.36355 17.4839H3.87161C3.72903 17.4839 3.6129 17.3677 3.6129 17.2252ZM2.64516 18.4516C2.64516 18.2739 2.79 18.129 2.96774 18.129H3.87161H5.24194C5.23258 18.2355 5.22581 18.3426 5.22581 18.4516C5.22581 18.5606 5.23258 18.6677 5.24226 18.7742H3.87161H2.96774C2.79 18.7742 2.64516 18.6294 2.64516 18.4516ZM3.92742 20.0584C3.77452 20.0913 3.6129 19.9674 3.6129 19.8058V19.6781C3.6129 19.5355 3.72903 19.4194 3.87161 19.4194H5.36323C5.39194 19.5206 5.42581 19.6197 5.4629 19.7171L3.92742 20.0584ZM21.3548 18.4516C21.3548 19.039 20.9335 19.53 20.3532 19.6194L9.29193 21.321C9.14548 21.3435 8.99677 21.3548 8.85 21.3548H8.77419C7.17355 21.3548 5.87097 20.0523 5.87097 18.4516C5.87097 16.851 7.17355 15.5484 8.77419 15.5484H8.85C8.99677 15.5484 9.14548 15.5597 9.29161 15.5819L20.3529 17.2835C20.9335 17.3732 21.3548 17.8642 21.3548 18.4516ZM21.3548 13.9519C21.3548 14.9442 20.9532 15.9042 20.2545 16.6158L19.6135 16.5171C19.9081 15.8984 20.0645 15.22 20.0645 14.5277V13.3429C20.0645 12.1965 19.6277 11.0961 18.8774 10.2613C19.0077 10.1384 19.1806 10.0645 19.3668 10.0645C19.5206 10.0645 19.6726 10.1142 19.7952 10.2052C20.7716 10.9258 21.3548 12.0732 21.3548 13.2739V13.9519Z" fill="black"/>
<path d="M8.45312 16.8389H9.09829V20.0647H8.45312V16.8389Z" fill="#60A171"/>
<path d="M11.0312 16.8389H11.6764V20.0647H11.0312V16.8389Z" fill="#60A171"/>
<path d="M13.6094 16.8389H14.2545V20.0647H13.6094V16.8389Z" fill="#60A171"/>
<path d="M16.1953 17.4839H16.8405V19.4194H16.1953V17.4839Z" fill="#60A171"/>
<path d="M18.7734 17.8066H19.4186V19.097H18.7734V17.8066Z" fill="#60A171"/>
</svg>
