<svg width="24" height="24" viewBox="0 0 24 24" fill="none" xmlns="http://www.w3.org/2000/svg">
<path d="M17.6569 4.47759C16.1459 2.87989 14.1369 2 12 2C9.86316 2 7.85412 2.87989 6.34315 4.47759C4.83214 6.07533 4 8.19956 4 10.459C4 15.0298 8.08731 18.8316 10.2832 20.874C10.5883 21.1578 10.8518 21.4029 11.0618 21.6103C11.3248 21.8701 11.6624 22 12 22C12.3376 22 12.6752 21.8701 12.9382 21.6103C13.1482 21.4029 13.4117 21.1578 13.7168 20.874C15.9127 18.8315 20 15.0298 20 10.459C20 8.19956 19.1679 6.07533 17.6569 4.47759ZM12.985 19.9944C12.6732 20.2844 12.4039 20.5349 12.1819 20.7542C12.0799 20.8548 11.9201 20.8549 11.8181 20.7542C11.5961 20.5348 11.3268 20.2844 11.0149 19.9943C8.95055 18.0742 5.10792 14.5 5.10792 10.459C5.10792 6.44072 8.19965 3.17161 11.9999 3.17161C15.8002 3.17161 18.8919 6.44072 18.8919 10.459C18.892 14.5 15.0494 18.0742 12.985 19.9944Z" fill="black"/>
<path d="M12.0099 6.41113C10.0659 6.41113 8.48438 8.08337 8.48438 10.1389C8.48438 12.1944 10.0659 13.8666 12.0099 13.8666C13.9539 13.8666 15.5354 12.1944 15.5354 10.1389C15.5354 8.08337 13.9539 6.41113 12.0099 6.41113ZM12.0099 12.695C10.6769 12.695 9.59237 11.5483 9.59237 10.1388C9.59237 8.72938 10.6769 7.58266 12.0099 7.58266C13.3429 7.58266 14.4274 8.72938 14.4274 10.1388C14.4274 11.5483 13.3429 12.695 12.0099 12.695Z" fill="black"/>
</svg>
