<svg width="24" height="24" viewBox="0 0 24 24" fill="none" xmlns="http://www.w3.org/2000/svg">
<path d="M7.19003 5.95215L6.94703 6.18699C6.90689 6.22582 5.95206 7.15348 4.98346 8.5107C3.66732 10.355 3 12.0277 3 13.4823C3 15.7091 4.87457 17.5207 7.17871 17.5207C9.48289 17.5207 11.3575 15.7091 11.3575 13.4823V13.1101C11.3575 10.4135 7.58193 6.36883 7.42119 6.19793L7.19003 5.95215ZM10.7021 13.11V13.4822C10.7021 15.3598 9.1215 16.8873 7.17871 16.8873C5.23596 16.8873 3.65536 15.3598 3.65536 13.4822C3.65536 10.7818 6.33961 7.75262 7.16941 6.88094C7.51088 7.26496 8.17836 8.04308 8.83881 8.96929C10.0578 10.6787 10.7021 12.1106 10.7021 13.11Z" fill="#60A171"/>
<path d="M4.53906 14.2262H5.19442C5.19442 12.5825 5.78782 11.3224 6.28554 10.5548C6.82938 9.71613 7.38204 9.26312 7.38761 9.25867L6.96762 8.77246C6.86839 8.85234 4.53906 10.7681 4.53906 14.2262Z" fill="#60A171"/>
<path d="M8.72332 14.2812H7.95312V14.9146H8.72332V14.2812Z" fill="#60A171"/>
<path d="M9.48113 13.5371H8.71094V14.1704H9.48113V13.5371Z" fill="#60A171"/>
<path d="M8.72332 12.793H7.95312V13.4263H8.72332V12.793Z" fill="#60A171"/>
<path d="M12.6436 9.23793C12.7988 9.37656 12.9455 9.5075 13.0805 9.638C13.2155 9.76855 13.351 9.91023 13.4945 10.0602C14.1693 10.7659 14.9341 11.5656 16.0349 11.5656C17.1357 11.5656 17.9006 10.7659 18.5753 10.0602C18.7187 9.91023 18.8542 9.76855 18.9892 9.63804C19.1243 9.50753 19.2709 9.3766 19.4261 9.23789C20.1563 8.58582 20.9838 7.84664 20.9838 6.78277C20.9838 5.7189 20.1562 4.9798 19.4261 4.32765C19.2709 4.18902 19.1242 4.05808 18.9892 3.92754C18.8542 3.79699 18.7187 3.65539 18.5752 3.50535C17.9004 2.79973 17.1356 2 16.0349 2C14.9341 2 14.1692 2.79973 13.4945 3.50535C13.351 3.65535 13.2155 3.79703 13.0805 3.92754C12.9454 4.05805 12.7989 4.18898 12.6436 4.32765C11.9135 4.97976 11.0859 5.71894 11.0859 6.78277C11.0859 7.8466 11.9135 8.58578 12.6436 9.23793ZM13.0884 4.79277C13.2415 4.65609 13.3997 4.51472 13.5438 4.37543C13.688 4.23609 13.8343 4.08312 13.9758 3.93523C14.5878 3.29519 15.2208 2.63336 16.0349 2.63336C16.849 2.63336 17.4819 3.29519 18.094 3.93523C18.2354 4.08312 18.3817 4.23609 18.5259 4.37543C18.6701 4.51472 18.8283 4.65605 18.9813 4.79281C19.6436 5.38433 20.3285 5.99601 20.3285 6.78281C20.3285 7.56964 19.6436 8.18125 18.9814 8.77281C18.8283 8.90949 18.6701 9.05086 18.5259 9.19023C18.3817 9.32953 18.2355 9.48249 18.094 9.63039C17.482 10.2704 16.849 10.9323 16.0349 10.9323C15.2208 10.9323 14.5878 10.2705 13.9758 9.63039C13.8344 9.48249 13.6881 9.32953 13.5439 9.19019C13.3997 9.05089 13.2415 8.90957 13.0885 8.77281C12.4262 8.18128 11.7414 7.56964 11.7414 6.78281C11.7413 5.99601 12.4261 5.38429 13.0884 4.79277Z" fill="black"/>
<path d="M17.5827 7.95508H16.8125V8.58844H17.5827V7.95508Z" fill="black"/>
<path d="M18.3405 7.21094H17.5703V7.8443H18.3405V7.21094Z" fill="black"/>
<path d="M17.5827 6.46582H16.8125V7.09914H17.5827V6.46582Z" fill="black"/>
<path d="M14.8796 5.72168H14.1094V6.35504H14.8796V5.72168Z" fill="black"/>
<path d="M19.9223 14.1924C18.2913 12.6203 15.3955 12.8574 13.467 14.7212C11.5385 16.585 11.293 19.3836 12.9205 20.9604C13.6453 21.6592 14.6199 22.0005 15.6486 22.0005C16.9343 22.0005 18.3044 21.467 19.3758 20.4316C21.3042 18.5679 21.5497 15.7692 19.9223 14.1924ZM18.9124 19.9837C17.2391 21.6009 14.7588 21.8379 13.3839 20.5125C12.0119 19.1833 12.2571 16.7862 13.9304 15.1691C14.8756 14.2557 16.0781 13.7826 17.1935 13.7826C18.0529 13.7826 18.8607 14.0635 19.459 14.6403C20.8309 15.9695 20.5857 18.3666 18.9124 19.9837Z" fill="black"/>
<path d="M14.7525 19.1941L14.2891 19.642C14.6389 19.98 15.1157 20.1568 15.6606 20.1568C15.8012 20.1568 15.9465 20.145 16.0951 20.1212C16.7793 20.0114 17.4635 19.655 18.0216 19.1175L17.5591 18.6689C16.6338 19.5599 15.3748 19.7956 14.7525 19.1941Z" fill="black"/>
<path d="M18.0972 15.9578L18.5606 15.51C18.1206 15.0848 17.479 14.9146 16.7546 15.0307C16.0704 15.1405 15.3862 15.4969 14.8281 16.0344L15.2906 16.4831C16.216 15.5921 17.475 15.3564 18.0972 15.9578Z" fill="black"/>
<path d="M18.0976 18.0651L18.6406 18.5898L19.104 18.142L18.561 17.6173L18.0976 18.0651Z" fill="black"/>
<path d="M14.2134 16.5629L13.75 17.0107L14.293 17.5355L14.7564 17.0877L14.2134 16.5629Z" fill="black"/>
<path d="M16.4663 18.0631L16.9297 17.6152L16.3829 17.0868L15.9195 17.5346L16.4663 18.0631Z" fill="black"/>
</svg>
