<svg width="24" height="24" viewBox="0 0 24 24" fill="none" xmlns="http://www.w3.org/2000/svg">
<path d="M9.30769 3H3.53846C3.13044 3 2.73912 3.19962 2.4506 3.55496C2.16209 3.91029 2 4.39222 2 4.89474V12.4737C2 12.9762 2.16209 13.4581 2.4506 13.8135C2.73912 14.1688 3.13044 14.3684 3.53846 14.3684H9.30769V15.3158C9.30516 16.3199 8.98017 17.2819 8.40368 17.9919C7.82719 18.7019 7.04604 19.1021 6.23077 19.1053C6.02676 19.1053 5.8311 19.2051 5.68684 19.3827C5.54258 19.5604 5.46154 19.8014 5.46154 20.0526C5.46154 20.3039 5.54258 20.5449 5.68684 20.7225C5.8311 20.9002 6.02676 21 6.23077 21C7.45485 21 8.62879 20.4011 9.49434 19.3351C10.3599 18.2691 10.8462 16.8233 10.8462 15.3158V4.89474C10.8462 4.39222 10.6841 3.91029 10.3955 3.55496C10.107 3.19962 9.71572 3 9.30769 3ZM9.30769 12.4737H3.53846V4.89474H9.30769V12.4737ZM20.4615 3H14.6923C14.2843 3 13.893 3.19962 13.6045 3.55496C13.3159 3.91029 13.1538 4.39222 13.1538 4.89474V12.4737C13.1538 12.9762 13.3159 13.4581 13.6045 13.8135C13.893 14.1688 14.2843 14.3684 14.6923 14.3684H20.4615V15.3158C20.459 16.3199 20.134 17.2819 19.5575 17.9919C18.981 18.7019 18.1999 19.1021 17.3846 19.1053C17.1806 19.1053 16.9849 19.2051 16.8407 19.3827C16.6964 19.5604 16.6154 19.8014 16.6154 20.0526C16.6154 20.3039 16.6964 20.5449 16.8407 20.7225C16.9849 20.9002 17.1806 21 17.3846 21C18.6087 21 19.7826 20.4011 20.6482 19.3351C21.5137 18.2691 22 16.8233 22 15.3158V4.89474C22 4.39222 21.8379 3.91029 21.5494 3.55496C21.2609 3.19962 20.8696 3 20.4615 3ZM20.4615 12.4737H14.6923V4.89474H20.4615V12.4737Z" fill="black"/>
</svg>
