<svg width="24" height="24" viewBox="0 0 24 24" fill="none" xmlns="http://www.w3.org/2000/svg">
<path d="M16.4353 11.0437L13.1361 8.50151C12.802 8.24455 12.2786 8.40385 12.1925 8.7817L11.3316 12.5588C11.2606 12.8718 11.5336 13.1619 11.8949 13.1619C11.9577 13.162 11.9536 13.1632 14.2324 12.4964C14.4081 12.4442 14.5024 12.277 14.443 12.1229C14.3835 11.9688 14.1929 11.8861 14.017 11.9382L12.0234 12.5298L12.8185 9.04131L15.8659 11.3894L15.2899 11.5604C15.1142 11.6126 15.02 11.7798 15.0794 11.9339C15.1389 12.088 15.3296 12.1707 15.5053 12.1186L16.2399 11.9005C16.6593 11.7762 16.7672 11.2996 16.4353 11.0437Z" fill="#60A171"/>
<path d="M10.5423 16.4497L6.2959 17.4318C6.04344 17.4901 5.86719 17.6911 5.86719 17.9204C5.86719 18.0537 5.92652 18.1795 6.03422 18.2748L9.1273 21.0089C9.23621 21.1052 9.38088 21.1582 9.53468 21.1582C9.79409 21.1582 10.0228 21.0052 10.0906 20.7861L10.6673 18.928C10.716 18.771 10.6104 18.6091 10.4314 18.5663C10.2525 18.5237 10.0677 18.6163 10.019 18.7733L9.48622 20.4895L6.62917 17.9641L10.5516 17.0569L10.3331 17.761C10.2844 17.918 10.39 18.0799 10.569 18.1227C10.748 18.1653 10.9327 18.0727 10.9814 17.9158C11.242 17.0553 11.2644 17.0538 11.2644 16.9365C11.2645 16.6091 10.9104 16.3645 10.5423 16.4497Z" fill="#60A171"/>
<path d="M17.7231 16.5871L13.6615 13.4574C13.297 13.1766 12.7222 13.3466 12.627 13.7644L11.5673 18.414C11.5226 18.61 11.5982 18.8058 11.7694 18.9378C11.9413 19.0702 12.1725 19.11 12.3877 19.0462L14.9484 18.2862L17.5091 17.5263C17.725 17.4622 17.8805 17.3069 17.9253 17.1109C17.9699 16.9148 17.8943 16.719 17.7231 16.5871ZM12.2402 18.4678L13.2719 13.9416L17.2257 16.9882L12.2402 18.4678Z" fill="#60A171"/>
<path d="M11.257 15.2893L10.0088 11.5968C9.94966 11.4219 9.79368 11.2922 9.59141 11.2496C9.38928 11.2072 9.18305 11.2608 9.03998 11.393L6.01777 14.1873C5.7131 14.4689 5.86985 14.9343 6.30088 15.025L8.43613 15.4741C10.7147 15.9483 10.5853 15.9376 10.7083 15.9376C11.0801 15.9376 11.3689 15.6204 11.257 15.2893ZM8.59283 14.9011L6.62051 14.4863L9.41222 11.9051L10.5652 15.316L8.59283 14.9011Z" fill="#60A171"/>
<path d="M19.3282 18.1643V8.68695C19.3282 7.62285 19.753 6.5857 20.5247 5.76516C20.528 5.76195 20.5312 5.75867 20.5344 5.75539C20.8346 5.4375 21 5.03523 21 4.62266V2.79668C21 2.35738 20.5924 2 20.0916 2H3.90899C3.40803 2 3.00056 2.35742 3.00056 2.79668V4.62262C3.00056 5.0352 3.1659 5.4375 3.4662 5.75535C3.46927 5.75863 3.47257 5.76191 3.47582 5.76508C4.24751 6.5857 4.67235 7.62281 4.67235 8.68691V18.1643C4.67235 18.168 4.67244 18.1716 4.67258 18.1754C4.72433 19.3831 3.82846 20.129 3.19418 20.7959C2.74177 21.2752 3.13036 22 3.83955 22C4.12141 22 17.462 22 17.5552 22H20.1609C20.4889 22 20.7795 21.8383 20.9191 21.5779C21.0718 21.2934 20.9952 20.9743 20.7939 20.7834C19.8579 19.898 19.2863 19.1529 19.3279 18.1753C19.3281 18.1716 19.3282 18.1679 19.3282 18.1643ZM17.2237 21.4107H14.4986L13.5129 20.8962L17.2599 19.0574L17.2237 21.4107ZM20.2932 21.1765C20.3756 21.2705 20.3006 21.4107 20.1609 21.4107H17.8957L17.9337 18.9352C17.9366 18.7493 17.8297 18.5816 17.6476 18.4864C17.4654 18.3913 17.2463 18.3888 17.0615 18.4795L13.0549 20.4457C12.8702 20.5365 12.7581 20.7015 12.7553 20.8872C12.7524 21.073 12.8593 21.2406 13.0415 21.3359L13.1849 21.4107H3.83955C3.7445 21.4107 3.70285 21.3522 3.68931 21.3271C3.67613 21.3024 3.65207 21.2394 3.70722 21.1765C4.52879 20.399 5.39727 19.4605 5.34413 18.1589V8.68695C5.34413 7.4816 4.86103 6.30691 3.98387 5.3793C3.98106 5.37629 3.97812 5.37336 3.97518 5.37047C3.85167 5.23707 3.76356 5.08199 3.71528 4.91734H6.4355C6.62111 4.91734 6.77148 4.78543 6.77148 4.6227C6.77148 4.45996 6.62111 4.32805 6.4355 4.32805H3.67243V2.79668C3.67243 2.68227 3.77853 2.58926 3.90895 2.58926H20.0915C20.2219 2.58926 20.328 2.6823 20.328 2.79668V4.32805H7.77933C7.59372 4.32805 7.44335 4.45996 7.44335 4.6227C7.44335 4.78543 7.59372 4.91734 7.77933 4.91734H20.2852C20.2369 5.08203 20.1488 5.23707 20.0253 5.37043C20.0224 5.37332 20.0194 5.37629 20.0166 5.3793C19.1394 6.30691 18.6563 7.4816 18.6563 8.68695V18.1589C18.6035 19.4599 19.4718 20.3987 20.2932 21.1765Z" fill="black"/>
<path d="M6.94488 6.1468C6.94488 6.03703 7.06198 5.9343 7.34874 5.9343C7.67987 5.9343 7.75657 6.06887 7.90195 6.06887C8.07968 6.06887 8.15237 5.8741 8.15237 5.77844C8.15237 5.50223 7.56277 5.4668 7.34879 5.4668C6.84395 5.4668 6.31501 5.66867 6.31501 6.19988C6.31501 7.02859 7.5951 6.95422 7.5951 7.3827C7.59502 7.55277 7.3891 7.61652 7.20327 7.61652C6.82769 7.61652 6.70658 7.35445 6.51679 7.35445C6.36334 7.35445 6.24219 7.53152 6.24219 7.65191C6.24219 8.1823 8.22493 8.45742 8.22493 7.32609C8.22497 6.43371 6.94488 6.50098 6.94488 6.1468Z" fill="black"/>
<path d="M9.95698 5.65369V6.85775L9.30279 5.76345C9.14934 5.50494 9.06458 5.4872 8.83839 5.4872C8.68089 5.4872 8.52344 5.54037 8.52344 5.6572V7.90603C8.52335 8.13271 9.15335 8.13267 9.15335 7.90603V6.70193L9.92058 7.92728C9.99733 8.05123 10.1265 8.07599 10.2719 8.07599C10.4294 8.07599 10.5869 8.01935 10.5869 7.90599V5.65369C10.5869 5.43041 9.95698 5.43068 9.95698 5.65369Z" fill="black"/>
<path d="M13.1741 7.81056L12.419 5.65029C12.3309 5.40451 11.6833 5.40416 11.5952 5.65029C10.8165 7.89505 10.836 7.82017 10.836 7.84951C10.836 8.04783 11.3796 8.17708 11.4458 7.97349L11.583 7.5308H12.4351L12.5724 7.97349C12.6409 8.18361 13.2398 8.04201 13.1741 7.81056ZM11.7123 7.10584L12.0071 6.15673L12.3019 7.10584H11.7123Z" fill="black"/>
<path d="M15.0466 7.09512C14.8851 7.09512 14.7478 7.13051 14.7357 7.26156C14.7235 7.39969 14.7034 7.6157 14.3803 7.6157C14.1461 7.6157 14.0128 7.50238 14.0128 7.26156V6.32309C14.0128 6.08227 14.1461 5.96895 14.3762 5.96895C14.7195 5.96895 14.7316 6.19562 14.7356 6.28766C14.7437 6.41516 14.881 6.4541 15.0506 6.4541C15.2646 6.4541 15.3656 6.40453 15.3656 6.19203C15.3656 5.74227 14.9295 5.4873 14.352 5.4873C13.823 5.4873 13.3828 5.71398 13.3828 6.32309V7.26156C13.3829 7.87066 13.8231 8.09734 14.352 8.09734C14.9295 8.09734 15.3656 7.82816 15.3656 7.35719C15.3656 7.14473 15.2647 7.09512 15.0466 7.09512Z" fill="black"/>
<path d="M16.8992 6.60634C17.5035 5.91189 17.6018 5.8906 17.6018 5.77056C17.6018 5.5915 17.2202 5.36709 17.0648 5.56513L16.3096 6.50365V5.65369C16.3096 5.43041 15.6797 5.43068 15.6797 5.65369V7.90599C15.6796 8.13267 16.3096 8.13263 16.3096 7.90599V7.26498L16.4792 7.07373L17.1697 7.99451C17.3294 8.22076 17.7674 8.0322 17.7674 7.82099C17.7674 7.73462 17.7631 7.78337 16.8992 6.60634Z" fill="black"/>
<path d="M13.3698 10.6707C13.518 10.6707 13.6381 10.5654 13.6381 10.4355C13.6381 10.3055 13.518 10.2002 13.3698 10.2002C13.2217 10.2002 13.1016 10.3055 13.1016 10.4355C13.1016 10.5654 13.2217 10.6707 13.3698 10.6707Z" fill="black"/>
<path d="M13.0886 11.6532C13.2368 11.6532 13.357 11.5479 13.357 11.4179C13.357 11.288 13.2368 11.1826 13.0886 11.1826C12.9404 11.1826 12.8203 11.288 12.8203 11.4179C12.8203 11.5479 12.9404 11.6532 13.0886 11.6532Z" fill="black"/>
<path d="M14.3699 11.4179C14.5181 11.4179 14.6382 11.3125 14.6382 11.1826C14.6382 11.0526 14.5181 10.9473 14.3699 10.9473C14.2217 10.9473 14.1016 11.0526 14.1016 11.1826C14.1016 11.3125 14.2217 11.4179 14.3699 11.4179Z" fill="black"/>
<path d="M16.5027 20.8758C16.6508 20.8758 16.7709 20.7705 16.7709 20.6405C16.7709 20.5106 16.6508 20.4053 16.5027 20.4053C16.3545 20.4053 16.2344 20.5106 16.2344 20.6405C16.2344 20.7705 16.3545 20.8758 16.5027 20.8758Z" fill="black"/>
<path d="M15.4011 21.2137C15.5493 21.2137 15.6694 21.1084 15.6694 20.9784C15.6694 20.8485 15.5493 20.7432 15.4011 20.7432C15.2529 20.7432 15.1328 20.8485 15.1328 20.9784C15.1328 21.1084 15.2529 21.2137 15.4011 21.2137Z" fill="black"/>
<path d="M13.862 16.2137C14.0102 16.2137 14.1303 16.1084 14.1303 15.9784C14.1303 15.8485 14.0102 15.7432 13.862 15.7432C13.7139 15.7432 13.5938 15.8485 13.5938 15.9784C13.5938 16.1084 13.7139 16.2137 13.862 16.2137Z" fill="black"/>
<path d="M13.9011 17.2225C14.0493 17.2225 14.1694 17.1172 14.1694 16.9872C14.1694 16.8573 14.0493 16.752 13.9011 16.752C13.7529 16.752 13.6328 16.8573 13.6328 16.9872C13.6328 17.1172 13.7529 17.2225 13.9011 17.2225Z" fill="black"/>
<path d="M15.0573 16.7088C15.2055 16.7088 15.3256 16.6035 15.3256 16.4736C15.3256 16.3436 15.2055 16.2383 15.0573 16.2383C14.9092 16.2383 14.7891 16.3436 14.7891 16.4736C14.7891 16.6035 14.9092 16.7088 15.0573 16.7088Z" fill="black"/>
<path d="M9.22921 18.2948C9.37738 18.2948 9.49749 18.1894 9.49749 18.0595C9.49749 17.9296 9.37738 17.8242 9.22921 17.8242C9.08105 17.8242 8.96094 17.9296 8.96094 18.0595C8.96094 18.1894 9.08105 18.2948 9.22921 18.2948Z" fill="black"/>
<path d="M8.19796 18.7127C8.34613 18.7127 8.46624 18.6074 8.46624 18.4775C8.46624 18.3475 8.34613 18.2422 8.19796 18.2422C8.0498 18.2422 7.92969 18.3475 7.92969 18.4775C7.92969 18.6074 8.0498 18.7127 8.19796 18.7127Z" fill="black"/>
<path d="M9.19796 19.451C9.34613 19.451 9.46624 19.3457 9.46624 19.2157C9.46624 19.0858 9.34613 18.9805 9.19796 18.9805C9.0498 18.9805 8.92969 19.0858 8.92969 19.2157C8.92969 19.3457 9.0498 19.451 9.19796 19.451Z" fill="black"/>
<path d="M9.01046 13.5663C9.15863 13.5663 9.27874 13.4609 9.27874 13.331C9.27874 13.201 9.15863 13.0957 9.01046 13.0957C8.8623 13.0957 8.74219 13.201 8.74219 13.331C8.74219 13.4609 8.8623 13.5663 9.01046 13.5663Z" fill="black"/>
<path d="M8.20578 14.2977C8.35394 14.2977 8.47405 14.1924 8.47405 14.0624C8.47405 13.9325 8.35394 13.8271 8.20578 13.8271C8.05761 13.8271 7.9375 13.9325 7.9375 14.0624C7.9375 14.1924 8.05761 14.2977 8.20578 14.2977Z" fill="black"/>
<path d="M9.4402 14.6562C9.58839 14.6562 9.70852 14.5508 9.70852 14.4209C9.70852 14.2909 9.58839 14.1855 9.4402 14.1855C9.29201 14.1855 9.17188 14.2909 9.17188 14.4209C9.17188 14.5508 9.29201 14.6562 9.4402 14.6562Z" fill="black"/>
</svg>
