<svg width="24" height="24" viewBox="0 0 24 24" fill="none" xmlns="http://www.w3.org/2000/svg">
<path d="M4.60716 22H11.6787C12.1047 21.9995 12.5132 21.8294 12.8145 21.527C13.1158 21.2247 13.2853 20.8147 13.2858 20.3871V11.0323C13.286 10.3398 13.0945 9.66091 12.7326 9.07129L10.7144 5.77968V4.58065C10.7996 4.58065 10.8814 4.54666 10.9417 4.48616C11.0019 4.42567 11.0358 4.34362 11.0358 4.25806V3.29032C11.0358 2.94811 10.9003 2.61991 10.6592 2.37793C10.4181 2.13594 10.0911 2 9.75007 2H6.53575C6.19475 2 5.86772 2.13594 5.6266 2.37793C5.38548 2.61991 5.25002 2.94811 5.25002 3.29032V4.25806C5.25002 4.34362 5.28389 4.42567 5.34417 4.48616C5.40445 4.54666 5.48621 4.58065 5.57146 4.58065V5.77968L3.55318 9.07C3.19114 9.65999 2.99961 10.3394 3 11.0323V20.3871C3.00051 20.8147 3.17 21.2247 3.47129 21.527C3.77258 21.8294 4.18107 21.9995 4.60716 22ZM11.6787 21.3548H4.60716C4.35141 21.3548 4.10614 21.2529 3.9253 21.0714C3.74446 20.8899 3.64286 20.6438 3.64286 20.3871V17.4839H12.643V20.3871C12.643 20.6438 12.5414 20.8899 12.3605 21.0714C12.1797 21.2529 11.9344 21.3548 11.6787 21.3548ZM3.64286 16.8387V12.9677H12.643V16.8387H3.64286ZM5.89289 3.29032C5.89289 3.11922 5.96062 2.95512 6.08118 2.83412C6.20174 2.71313 6.36525 2.64516 6.53575 2.64516H9.75007C9.92057 2.64516 10.0841 2.71313 10.2046 2.83412C10.3252 2.95512 10.3929 3.11922 10.3929 3.29032V3.93548H5.89289V3.29032ZM6.16675 6.04C6.19777 5.98911 6.21423 5.93063 6.21432 5.87097V4.58065H10.0715V5.87097C10.0716 5.93063 10.0881 5.98911 10.1191 6.04L11.4003 8.12903H4.88552L6.16675 6.04ZM4.10058 9.40935L4.48984 8.77419H11.796L12.1852 9.40935C12.4847 9.89731 12.6432 10.4592 12.643 11.0323V12.3226H3.64286V11.0323C3.64266 10.4592 3.80112 9.89731 4.10058 9.40935Z" fill="black"/>
<path d="M6.66219 13.6378C6.60344 13.6134 6.5388 13.607 6.47643 13.6195C6.41407 13.632 6.35678 13.6627 6.31183 13.7078L5.57479 14.4475L4.83775 13.7078C4.79279 13.6627 4.73553 13.632 4.67318 13.6196C4.61084 13.6071 4.54622 13.6135 4.4875 13.6379C4.42877 13.6623 4.37858 13.7037 4.34326 13.7567C4.30794 13.8098 4.28908 13.8721 4.28906 13.9359V16.194H4.93193V14.7146L5.34754 15.1317C5.40781 15.1922 5.48956 15.2262 5.57479 15.2262C5.66002 15.2262 5.74176 15.1922 5.80204 15.1317L6.21765 14.7146V16.194H6.86052V13.9359C6.86053 13.8721 6.8417 13.8097 6.8064 13.7567C6.7711 13.7036 6.72092 13.6623 6.66219 13.6378Z" fill="#60A171"/>
<path d="M7.81474 13.6133H7.17188V16.1939H7.81474V13.6133Z" fill="#60A171"/>
<path d="M8.77568 13.6133H8.13281V15.8713C8.13281 15.9569 8.16668 16.0389 8.22696 16.0994C8.28724 16.1599 8.369 16.1939 8.45424 16.1939H9.73997V15.5488H8.77568V13.6133Z" fill="#60A171"/>
<path d="M12.0067 14.2584V13.6133H11.3639V14.0591L10.721 14.3817V13.6133H10.0781V16.1939H10.721V15.4255L11.3639 15.7481V16.1939H12.0067V15.5488C12.007 15.4885 11.9906 15.4294 11.9592 15.3781C11.9277 15.3268 11.8826 15.2854 11.829 15.2584L11.1183 14.9036L11.829 14.5488C11.8826 14.5218 11.9277 14.4804 11.9592 14.4291C11.9906 14.3778 12.007 14.3187 12.0067 14.2584Z" fill="#60A171"/>
<path d="M20.6726 11.6777H14.244C14.2 11.6776 14.1563 11.6866 14.1159 11.7042C14.0754 11.7217 14.039 11.7474 14.0089 11.7796C13.9787 11.8119 13.9555 11.85 13.9407 11.8916C13.9258 11.9332 13.9197 11.9775 13.9226 12.0216L14.5654 21.699C14.5708 21.7808 14.6071 21.8575 14.6668 21.9135C14.7265 21.9694 14.8052 22.0005 14.8869 22.0003H20.0298C20.1115 22.0005 20.1902 21.9694 20.2499 21.9135C20.3096 21.8575 20.3458 21.7808 20.3512 21.699L20.9941 12.0216C20.997 11.9775 20.9908 11.9332 20.976 11.8916C20.9611 11.85 20.9379 11.8119 20.9078 11.7796C20.8776 11.7474 20.8412 11.7217 20.8008 11.7042C20.7603 11.6866 20.7167 11.6776 20.6726 11.6777ZM20.329 12.3229L20.1789 14.581H14.7377L14.5876 12.3229H20.329ZM19.7286 21.3552H15.1874L14.7805 15.2261H20.1362L19.7286 21.3552Z" fill="black"/>
</svg>
