<svg width="24" height="24" viewBox="0 0 24 24" fill="none" xmlns="http://www.w3.org/2000/svg">
<path d="M4.27053 19H19.7295C20.9828 18.9987 21.9986 18.0527 22 16.8852V7.1148C21.9986 5.94744 20.9828 5.00127 19.7295 5H4.27053C3.01721 5.00127 2.00136 5.94744 2 7.1148V16.8852C2.00136 18.0527 3.01721 18.9987 4.27053 19ZM4.27053 18.3701C3.92165 18.3705 3.58228 18.2636 3.30525 18.0659L7.92844 13.6615C8.01419 13.5812 8.04695 13.4643 8.01449 13.3553C7.98204 13.2462 7.88934 13.1618 7.77159 13.1341C7.65368 13.1063 7.52899 13.1394 7.44475 13.2213L2.86473 17.5846C2.74094 17.3696 2.67618 17.1293 2.67633 16.8852V7.80914L10.5355 14.0074C11.3816 14.6783 12.6256 14.678 13.4712 14.0062L21.3237 7.80309V16.8852C21.324 17.1303 21.2588 17.3713 21.1341 17.5869L16.5266 13.2204C16.3954 13.0975 16.1824 13.0963 16.0495 13.2176C15.9168 13.3394 15.9144 13.5378 16.0442 13.662L20.6928 18.0673C20.4161 18.264 20.0776 18.3705 19.7295 18.3701H4.27053ZM4.27053 5.62994H19.7295C20.5543 5.63107 21.2425 6.21713 21.317 6.98248L13.0338 13.5258C12.4401 13.9975 11.5666 13.9977 10.9725 13.5266L2.68267 6.98853C2.75362 6.22079 3.44309 5.63107 4.27053 5.62994Z" fill="black"/>
</svg>
