<svg width="24" height="24" viewBox="0 0 24 24" fill="none" xmlns="http://www.w3.org/2000/svg">
<path d="M18.1777 16.5H10.3418C9.41259 16.5 8.58924 15.8277 8.34091 14.8656L5.69171 4.8792C5.54171 4.3014 5.0492 3.9 4.4917 3.9H2.41667C2.18667 3.9 2 3.6984 2 3.45C2 3.2016 2.18667 3 2.41667 3H4.4917C5.42087 3 6.24422 3.6723 6.49255 4.6344L7.01506 6.59999H20.7494C21.1486 6.59999 21.5144 6.79799 21.7519 7.14359C21.9902 7.48919 22.0611 7.92479 21.9461 8.33699L20.1535 14.952C19.8652 15.8844 19.0727 16.5 18.1777 16.5ZM7.2534 7.49999L9.14258 14.6208C9.29175 15.1986 9.78426 15.6 10.3418 15.6H18.1777C18.706 15.6 19.191 15.2229 19.3577 14.6838L21.1486 8.07959C21.1869 7.94189 21.1627 7.79699 21.0836 7.68179C21.0044 7.56569 20.8827 7.49999 20.7494 7.49999H7.2534Z" fill="black"/>
<path d="M11.1667 21.0004C10.2475 21.0004 9.5 20.1931 9.5 19.2004C9.5 18.2077 10.2475 17.4004 11.1667 17.4004C12.0859 17.4004 12.8334 18.2077 12.8334 19.2004C12.8334 20.1931 12.0859 21.0004 11.1667 21.0004ZM11.1667 18.3004C10.7067 18.3004 10.3333 18.7045 10.3333 19.2004C10.3333 19.6963 10.7067 20.1004 11.1667 20.1004C11.6267 20.1004 12 19.6963 12 19.2004C12 18.7045 11.6267 18.3004 11.1667 18.3004Z" fill="black"/>
<path d="M17.0026 21.0004C16.0834 21.0004 15.3359 20.1931 15.3359 19.2004C15.3359 18.2077 16.0834 17.4004 17.0026 17.4004C17.9218 17.4004 18.6693 18.2077 18.6693 19.2004C18.6693 20.1931 17.9218 21.0004 17.0026 21.0004ZM17.0026 18.3004C16.5426 18.3004 16.1693 18.7045 16.1693 19.2004C16.1693 19.6963 16.5426 20.1004 17.0026 20.1004C17.4626 20.1004 17.836 19.6963 17.836 19.2004C17.836 18.7045 17.4626 18.3004 17.0026 18.3004Z" fill="black"/>
</svg>
