<svg width="24" height="24" viewBox="0 0 24 24" fill="none" xmlns="http://www.w3.org/2000/svg">
<path d="M6.99999 9.33337V17.0001C6.99999 17.0885 7.03511 17.1733 7.09762 17.2358C7.16013 17.2983 7.24492 17.3334 7.33332 17.3334H16.6666C16.755 17.3334 16.8398 17.2983 16.9023 17.2358C16.9649 17.1733 17 17.0885 17 17.0001V7.00003C17 6.91162 16.9649 6.82684 16.9023 6.76433C16.8398 6.70181 16.755 6.66669 16.6666 6.66669H7.33332C7.24492 6.66669 7.16013 6.70181 7.09762 6.76433C7.03511 6.82684 6.99999 6.91162 6.99999 7.00003V8.6667H7.66666V7.33336H10.3333V11.0001H7.66666V9.33337H6.99999ZM13.6666 7.33336H16.3333V11.0001H13.6666V7.33336ZM11 7.33336H13V11.0001H11V7.33336ZM11 11.6667H13V13.4607L12.8157 13.3686C12.7694 13.3455 12.7184 13.3334 12.6666 13.3334C12.6149 13.3334 12.5639 13.3455 12.5176 13.3686L12 13.6274L11.4824 13.3686C11.4361 13.3455 11.3851 13.3334 11.3333 13.3334C11.2816 13.3334 11.2305 13.3455 11.1842 13.3686L11 13.4607V11.6667ZM10.3333 11.6667V14.0001C10.3333 14.0569 10.3478 14.1128 10.3755 14.1624C10.4032 14.212 10.4431 14.2537 10.4914 14.2836C10.5398 14.3135 10.5949 14.3305 10.6517 14.3331C10.7084 14.3356 10.7649 14.3236 10.8157 14.2982L11.3333 14.0394L11.8509 14.2982C11.8972 14.3213 11.9482 14.3334 12 14.3334C12.0517 14.3334 12.1028 14.3213 12.1491 14.2982L12.6666 14.0394L13.1842 14.2982C13.235 14.3236 13.2915 14.3356 13.3483 14.3331C13.405 14.3305 13.4602 14.3135 13.5085 14.2836C13.5569 14.2537 13.5968 14.212 13.6244 14.1624C13.6521 14.1128 13.6666 14.0569 13.6666 14.0001V11.6667H16.3333V16.6667H7.66666V11.6667H10.3333ZM15.6666 16.0001H15V15.3334H15.6666V16.0001ZM14.3333 16.0001H13.6666V15.3334H14.3333V16.0001ZM13 16.0001H12.3333V15.3334H13V16.0001ZM19.0711 4.92893C20.0025 5.85538 20.741 6.95737 21.2438 8.17112C21.7465 9.38488 22.0035 10.6863 22 12.0001C21.9997 12.4616 21.9679 12.9226 21.9048 13.3799C21.8937 13.4596 21.8542 13.5327 21.7935 13.5856C21.7328 13.6385 21.6551 13.6676 21.5745 13.6676C21.5592 13.6676 21.5439 13.6665 21.5287 13.6644L20.2079 13.4804C20.1204 13.4682 20.0413 13.4218 19.9881 13.3513C19.9348 13.2809 19.9116 13.1921 19.9237 13.1046C19.9743 12.7386 19.9998 12.3696 20 12.0001C20 7.58882 16.4112 4.00001 12 4.00001C10.6757 3.99931 9.37208 4.32764 8.20614 4.9555C7.0402 5.58336 6.04853 6.49108 5.32024 7.59707L5.87074 7.87582C5.92544 7.90352 5.97144 7.94577 6.00369 7.99792C6.03593 8.05007 6.05316 8.1101 6.0535 8.17141C6.05383 8.23272 6.03724 8.29293 6.00557 8.34543C5.97389 8.39793 5.92835 8.44067 5.87395 8.46895L3.53546 9.68483C3.48916 9.70891 3.43785 9.72178 3.38567 9.7224C3.33349 9.72302 3.28189 9.71139 3.23503 9.68843C3.18817 9.66547 3.14735 9.63183 3.11586 9.59021C3.08438 9.5486 3.0631 9.50017 3.05375 9.44883L2.57196 6.80494C2.56084 6.74389 2.56698 6.68095 2.58969 6.6232C2.61241 6.56545 2.65079 6.51519 2.70052 6.47808C2.75025 6.44096 2.80936 6.41846 2.87118 6.41312C2.933 6.40777 2.99509 6.41979 3.05046 6.44782L3.52608 6.68865C3.83523 6.19671 4.18642 5.73247 4.5757 5.30114L5.07058 5.74786C4.64152 6.22317 4.26224 6.74115 3.93866 7.2937C3.8958 7.367 3.82658 7.42119 3.74513 7.44519C3.66368 7.4692 3.57614 7.46121 3.50037 7.42286L3.34812 7.34578L3.62862 8.88496L4.99004 8.17712L4.69283 8.02666C4.65204 8.00599 4.61594 7.97716 4.58678 7.94194C4.55761 7.90673 4.536 7.86589 4.52329 7.82196C4.51058 7.77804 4.50704 7.73197 4.5129 7.68663C4.51876 7.64128 4.53388 7.59762 4.55733 7.55836C5.32579 6.26988 6.41574 5.20308 7.72041 4.46245C9.02508 3.72182 10.4997 3.33275 12 3.33334C16.7788 3.33334 20.6666 7.22124 20.6666 12.0001C20.6666 12.287 20.6521 12.5768 20.6234 12.8652L21.2841 12.9573C21.3168 12.6392 21.3332 12.3198 21.3333 12.0001C21.3333 10.1785 20.8003 8.39666 19.8 6.87433C18.7996 5.352 17.3757 4.15569 15.7036 3.43287C14.0316 2.71006 12.1846 2.49234 10.3903 2.80657C8.596 3.12079 6.9329 3.95322 5.60599 5.20123L5.14912 4.71572C7.04234 2.935 9.55451 1.96137 12.1533 2.00117C14.7521 2.04097 17.2332 3.09107 19.0711 4.92893ZM4.07625 10.8955C4.02569 11.2615 4.00021 11.6306 4 12.0001C4 16.4113 7.58878 20.0001 12 20.0001C13.3284 20.0008 14.6361 19.6703 15.8048 19.0387C16.9735 18.407 17.9663 17.4941 18.6936 16.3824L18.2166 16.2042C18.1592 16.1828 18.1087 16.1459 18.0709 16.0976C18.033 16.0493 18.0092 15.9916 18.0021 15.9306C17.995 15.8697 18.0049 15.808 18.0306 15.7523C18.0563 15.6966 18.0968 15.6491 18.1478 15.615L20.3333 14.1521C20.3765 14.1232 20.426 14.1048 20.4776 14.0984C20.5292 14.092 20.5816 14.0978 20.6306 14.1152C20.6796 14.1327 20.7239 14.1614 20.7598 14.1991C20.7957 14.2367 20.8223 14.2823 20.8375 14.332L21.6201 16.9029C21.6382 16.9623 21.6393 17.0257 21.6233 17.0858C21.6073 17.1459 21.5748 17.2003 21.5295 17.2428C21.4842 17.2854 21.4279 17.3145 21.367 17.3268C21.306 17.339 21.2429 17.334 21.1846 17.3123L20.6052 17.0959C20.2197 17.7453 19.7622 18.3491 19.2413 18.8959L18.7586 18.4361C19.3068 17.8607 19.7796 17.2178 20.1655 16.523C20.2042 16.4532 20.2667 16.3997 20.3416 16.3721C20.4165 16.3444 20.4987 16.3446 20.5735 16.3725L20.786 16.4517L20.3307 14.9558L19.0591 15.807L19.3078 15.8999C19.3534 15.9169 19.3947 15.9437 19.4288 15.9784C19.4629 16.013 19.4891 16.0547 19.5053 16.1006C19.5216 16.1464 19.5277 16.1953 19.5231 16.2437C19.5185 16.2921 19.5033 16.339 19.4787 16.3809C18.7146 17.6859 17.6223 18.7682 16.3102 19.5201C14.9982 20.272 13.5122 20.6673 12 20.6668C7.2212 20.6668 3.33333 16.7789 3.33333 12.0001C3.33333 11.7131 3.34787 11.4233 3.37658 11.1349L2.71583 11.0428C2.68321 11.3609 2.6668 11.6804 2.66667 12.0001C2.66658 13.8089 3.19214 15.5788 4.17941 17.0945C5.16668 18.6101 6.57311 19.8062 8.22763 20.5373C9.88215 21.2683 11.7135 21.5028 13.4988 21.2122C15.2841 20.9217 16.9466 20.1185 18.2839 18.9006L18.733 19.3933C17.3001 20.6983 15.519 21.5588 13.6061 21.8701C11.6932 22.1815 9.73109 21.9302 7.95838 21.147C6.18566 20.3637 4.67875 19.0822 3.62093 17.4583C2.56311 15.8344 1.99997 13.9381 2 12.0001C2.00025 11.5385 2.03206 11.0775 2.09521 10.6203C2.1012 10.5769 2.11569 10.5351 2.13785 10.4973C2.16 10.4595 2.18939 10.4264 2.22433 10.4C2.25927 10.3736 2.29908 10.3543 2.34147 10.3433C2.38387 10.3322 2.42803 10.3297 2.47142 10.3357L3.79225 10.5197C3.8797 10.532 3.95873 10.5784 4.01197 10.6488C4.06522 10.7193 4.08834 10.808 4.07625 10.8955Z" fill="black"/>
</svg>
