<svg width="24" height="24" viewBox="0 0 24 24" fill="none" xmlns="http://www.w3.org/2000/svg">
<path d="M21.3567 15.9564C21.3213 15.93 17.3287 13.3584 16.2453 13.527C15.7247 13.6098 15.4267 13.929 14.83 14.5692C14.734 14.6724 14.5027 14.919 14.324 15.0948C13.9469 14.9842 13.5791 14.8495 13.2233 14.6916C11.387 13.887 9.90333 12.5517 9.00933 10.899C8.83391 10.5789 8.68419 10.2478 8.56133 9.9084C8.75733 9.747 9.032 9.5388 9.14933 9.45C9.85667 8.916 10.2113 8.6478 10.3033 8.1786C10.492 7.2072 7.63333 3.6108 7.604 3.5784C7.47382 3.41223 7.30426 3.27415 7.10758 3.17413C6.9109 3.07411 6.69199 3.01463 6.46667 3C5.308 3 2 6.8616 2 7.5126C2 7.5504 2.06067 11.3928 7.32533 16.2126C12.6747 20.9454 16.944 21 16.986 21C17.7093 21 22 18.0228 22 16.98C21.9838 16.7771 21.9176 16.5801 21.8063 16.403C21.6951 16.226 21.5415 16.0734 21.3567 15.9564ZM16.9127 19.7964C16.33 19.7532 12.7473 19.3278 8.268 15.3672C3.84467 11.3142 3.384 8.0808 3.338 7.5798C4.21185 6.34539 5.26719 5.22301 6.47533 4.2432C6.502 4.2672 6.53733 4.3032 6.58267 4.35C7.50922 5.48834 8.30738 6.70696 8.96533 7.9878C8.75137 8.18152 8.52522 8.36402 8.288 8.5344C7.92013 8.78667 7.58232 9.0726 7.28 9.3876L7.118 9.5916L7.166 9.8382C7.30709 10.3882 7.52317 10.9205 7.80933 11.4228C8.83459 13.3176 10.5358 14.8485 12.6413 15.771C13.1994 16.0289 13.7908 16.2236 14.402 16.3506L14.676 16.3938L14.9027 16.248C15.254 15.9747 15.573 15.6695 15.8547 15.3372C16.0633 15.1128 16.3427 14.8134 16.448 14.7288C17.8752 15.3204 19.2327 16.0396 20.5 16.8756C20.5553 16.9176 20.594 16.95 20.62 16.971C19.5315 18.0587 18.2844 19.0087 16.9127 19.7952V19.7964Z" fill="black"/>
</svg>
