<svg width="24" height="24" viewBox="0 0 24 24" fill="none" xmlns="http://www.w3.org/2000/svg">
<path d="M20.6 10.783L20.082 8.16292C20.2236 8.12488 20.3299 7.966 20.3299 7.77565V7.35322C20.3299 6.43602 19.7398 5.68985 19.0146 5.68985H16.6556V4.81849C16.6556 4.36716 16.3653 4 16.0084 4H3.98329C3.62641 4 3.3361 4.36716 3.3361 4.81849V12.0001C3.3361 12.2188 3.47629 12.3961 3.64926 12.3961C3.82219 12.3961 3.96243 12.2188 3.96243 12.0001V4.81849C3.96243 4.80392 3.97176 4.79211 3.98329 4.79211H16.0083C16.0199 4.79211 16.0292 4.80392 16.0292 4.81849V12.0002C16.0292 12.2189 16.1694 12.3962 16.3424 12.3962C16.5153 12.3962 16.6555 12.2189 16.6555 12.0002V11.5512H20.3496C20.35 11.5512 20.3502 11.5513 20.3505 11.5513C20.3508 11.5513 20.3511 11.5513 20.3513 11.5513C20.8059 11.5517 21.1919 11.929 21.3245 12.4489H20.3507C20.1778 12.4489 20.0375 12.6262 20.0375 12.845V13.6899C20.0375 14.3741 20.4777 14.9308 21.0187 14.9308H21.3737V16.6734H20.5548C20.2859 15.6911 19.5475 14.9836 18.6805 14.9836C17.8135 14.9836 17.0752 15.6911 16.8062 16.6734H16.6555V13.6898C16.6555 13.4711 16.5153 13.2938 16.3423 13.2938C16.1694 13.2938 16.0291 13.4711 16.0291 13.6898V16.6733H9.53193C9.26294 15.691 8.52462 14.9835 7.65763 14.9835C6.79063 14.9835 6.05227 15.691 5.78333 16.6733H3.98329C3.97176 16.6733 3.96243 16.6615 3.96243 16.6469V15.7756H5.31942C5.49235 15.7756 5.63259 15.5983 5.63259 15.3795C5.63259 15.1608 5.49239 14.9835 5.31942 14.9835H2.31316C2.14023 14.9835 2 15.1608 2 15.3795C2 15.5983 2.1402 15.7756 2.31316 15.7756H3.33614V16.6469C3.33614 17.0982 3.62645 17.4654 3.98332 17.4654H5.67489C5.67481 17.4742 5.67434 17.4829 5.67434 17.4918C5.67434 18.8748 6.56407 20 7.65763 20C8.75119 20 9.64091 18.8748 9.64091 17.4918C9.64091 17.4829 9.64045 17.4742 9.64037 17.4654H16.6978C16.6977 17.4742 16.6973 17.4829 16.6973 17.4918C16.6973 18.8748 17.587 20 18.6805 20C19.7741 20 20.6638 18.8748 20.6638 17.4918C20.6638 17.4829 20.6634 17.4742 20.6633 17.4654H21.6868C21.8598 17.4654 22 17.2881 22 17.0693V12.8449C22 11.8019 21.3916 10.9354 20.6 10.783ZM16.6556 6.48191H19.0146C19.3945 6.48191 19.7036 6.87278 19.7036 7.35322V7.3796H16.6556V6.48191ZM16.6556 10.7591V8.17166H19.4382L19.9497 10.7591H16.6556ZM7.65763 19.208C6.90939 19.208 6.30063 18.4382 6.30063 17.4919C6.30063 16.5455 6.90939 15.7757 7.65763 15.7757C8.40587 15.7757 9.01462 16.5455 9.01462 17.4919C9.01462 18.4382 8.40587 19.208 7.65763 19.208ZM18.6806 19.208C17.9324 19.208 17.3236 18.4382 17.3236 17.4919C17.3236 16.5455 17.9324 15.7757 18.6806 15.7757C19.4289 15.7757 20.0376 16.5455 20.0376 17.4919C20.0376 18.4382 19.4289 19.208 18.6806 19.208ZM21.3738 14.1387H21.0188C20.8231 14.1387 20.6639 13.9373 20.6639 13.6898V13.241H21.3737V14.1387H21.3738Z" fill="black"/>
<path d="M7.66281 16.6738C7.30594 16.6738 7.01562 17.041 7.01562 17.4923C7.01562 17.9437 7.30594 18.3108 7.66281 18.3108C8.01969 18.3108 8.31 17.9437 8.31 17.4923C8.31 17.041 8.01969 16.6738 7.66281 16.6738Z" fill="black"/>
<path d="M18.6863 16.6738C18.3294 16.6738 18.0391 17.041 18.0391 17.4923C18.0391 17.9437 18.3294 18.3108 18.6863 18.3108C19.0431 18.3108 19.3334 17.9437 19.3334 17.4923C19.3334 17.041 19.0431 16.6738 18.6863 16.6738Z" fill="black"/>
<path d="M15.0052 14.9834H10.3288C10.1559 14.9834 10.0156 15.1607 10.0156 15.3795C10.0156 15.5982 10.1558 15.7755 10.3288 15.7755H15.0052C15.1781 15.7755 15.3184 15.5982 15.3184 15.3795C15.3184 15.1607 15.1782 14.9834 15.0052 14.9834Z" fill="black"/>
<path d="M6.98559 13.293H2.97723C2.8043 13.293 2.66406 13.4703 2.66406 13.689C2.66406 13.9078 2.80426 14.0851 2.97723 14.0851H6.98559C7.15852 14.0851 7.29876 13.9078 7.29876 13.689C7.29876 13.4703 7.15852 13.293 6.98559 13.293Z" fill="black"/>
<path d="M12.8907 7.91675C12.7684 7.76212 12.5701 7.76212 12.4478 7.9168L9.66298 11.4387L8.21427 9.60654C8.09196 9.45187 7.89368 9.45187 7.77142 9.60654C7.64911 9.76122 7.64911 10.0119 7.77142 10.1666L9.44158 12.2789C9.50271 12.3562 9.58286 12.3948 9.66298 12.3948C9.7431 12.3948 9.8233 12.3562 9.88439 12.2789L12.8906 8.47687C13.0129 8.32214 13.0129 8.07142 12.8907 7.91675Z" fill="black"/>
</svg>
