<svg width="24" height="24" viewBox="0 0 24 24" fill="none" xmlns="http://www.w3.org/2000/svg">
<path d="M21.7488 6.42513L17.7488 5.02512C17.6533 4.99163 17.5467 4.99163 17.4512 5.02512L13.4512 6.42513C13.3771 6.45113 13.3135 6.49596 13.2687 6.55385C13.224 6.61174 13.2 6.68003 13.2 6.74993V10.3676C13.2021 11.0323 13.3998 11.6853 13.774 12.2638C14.1483 12.8422 14.6865 13.3266 15.3368 13.6702L17.3944 14.7503C17.4565 14.7828 17.5276 14.8 17.6 14.8C17.6724 14.8 17.7435 14.7828 17.8056 14.7503L19.6 13.8081V17.7281C19.5998 17.8803 19.5306 18.0262 19.4076 18.1338C19.2847 18.2414 19.1179 18.3019 18.944 18.3021H3.456C3.28208 18.3019 3.11535 18.2414 2.99237 18.1338C2.86939 18.0262 2.80021 17.8803 2.8 17.7281V9.89995H12C12.1061 9.89995 12.2078 9.86307 12.2828 9.79743C12.3579 9.7318 12.4 9.64277 12.4 9.54995C12.4 9.45712 12.3579 9.36809 12.2828 9.30246C12.2078 9.23682 12.1061 9.19994 12 9.19994H2.8V8.37394C2.80021 8.22176 2.86939 8.07587 2.99237 7.96826C3.11535 7.86065 3.28208 7.80012 3.456 7.79993H12C12.1061 7.79993 12.2078 7.76306 12.2828 7.69742C12.3579 7.63178 12.4 7.54276 12.4 7.44993C12.4 7.35711 12.3579 7.26808 12.2828 7.20244C12.2078 7.13681 12.1061 7.09993 12 7.09993H3.456C3.06991 7.10012 2.69969 7.2344 2.42669 7.47328C2.15368 7.71217 2.00021 8.03611 2 8.37394V17.726C2.00021 18.0638 2.15368 18.3878 2.42669 18.6266C2.69969 18.8655 3.06991 18.9998 3.456 19H18.944C19.3301 18.9998 19.7003 18.8655 19.9733 18.6266C20.2463 18.3878 20.3998 18.0638 20.4 17.726V13.33C20.8983 12.9685 21.2998 12.5157 21.5763 12.0036C21.8527 11.4915 21.9974 10.9325 22 10.3662V6.74993C22 6.68003 21.976 6.61174 21.9313 6.55385C21.8865 6.49596 21.823 6.45113 21.7488 6.42513ZM21.2 10.3676C21.1984 10.9115 21.0366 11.4458 20.7303 11.9191C20.424 12.3924 19.9834 12.7886 19.4512 13.0696L17.6 14.0419L15.7488 13.0696C15.2166 12.7886 14.776 12.3924 14.4697 11.9191C14.1634 11.4458 14.0016 10.9115 14 10.3676V6.98653L17.6 5.72652L21.2 6.98653V10.3676Z" fill="black"/>
<path d="M16.285 9.36321C16.2478 9.33067 16.2037 9.30485 16.1552 9.28722C16.1067 9.26959 16.0546 9.2605 16.0021 9.26047C15.9495 9.26043 15.8975 9.26946 15.8489 9.28703C15.8003 9.3046 15.7562 9.33037 15.719 9.36286C15.6818 9.39536 15.6523 9.43394 15.6321 9.47642C15.612 9.51889 15.6016 9.56443 15.6016 9.61042C15.6015 9.6564 15.6118 9.70195 15.6319 9.74445C15.652 9.78695 15.6814 9.82557 15.7186 9.85811L16.7858 10.7912C16.8608 10.8568 16.9625 10.8937 17.0686 10.8937C17.1747 10.8937 17.2764 10.8568 17.3514 10.7912L19.485 8.92431C19.56 8.85859 19.6021 8.76949 19.602 8.67661C19.6019 8.58373 19.5597 8.49468 19.4846 8.42906C19.4095 8.36343 19.3076 8.32659 19.2015 8.32666C19.0954 8.32673 18.9936 8.36368 18.9186 8.42941L17.0682 10.0492L16.285 9.36321Z" fill="black"/>
<path d="M4.79844 16.2007C4.69235 16.2007 4.59061 16.2376 4.51559 16.3032C4.44058 16.3688 4.39844 16.4579 4.39844 16.5507C4.39844 16.6435 4.44058 16.7325 4.51559 16.7982C4.59061 16.8638 4.69235 16.9007 4.79844 16.9007H7.99844C8.10452 16.9007 8.20627 16.8638 8.28128 16.7982C8.35629 16.7325 8.39844 16.6435 8.39844 16.5507C8.39844 16.4579 8.35629 16.3688 8.28128 16.3032C8.20627 16.2376 8.10452 16.2007 7.99844 16.2007H4.79844Z" fill="black"/>
</svg>
