<svg width="24" height="24" viewBox="0 0 24 24" fill="none" xmlns="http://www.w3.org/2000/svg">
<path d="M20.4023 19.6717H14.4505C15.2927 19.2917 16.0599 18.7541 16.7209 18.0927H17.8649C20.145 18.0927 22 16.0769 22 13.5991C22 12.2806 21.0129 11.208 19.7996 11.208H19.2136V10.0246C19.2136 9.57973 18.8805 9.21777 18.4711 9.21777H4.53543C4.12602 9.21777 3.79293 9.57973 3.79293 10.0246V11.4369C3.79293 11.6127 3.9241 11.7552 4.0859 11.7552C4.2477 11.7552 4.37887 11.6127 4.37887 11.4369V10.0246C4.37887 9.93082 4.4491 9.8545 4.53543 9.8545H8.01922V11.3112C7.93945 11.35 7.8659 11.4043 7.8025 11.4738L6.70273 12.6802C6.56879 12.8272 6.495 13.022 6.495 13.2289V15.8905C6.495 16.3204 6.81684 16.6701 7.21242 16.6701H9.41195C9.80754 16.6701 10.1294 16.3204 10.1294 15.8905V13.2289C10.1294 13.022 10.0556 12.8272 9.92164 12.6802L8.82191 11.4739C8.75852 11.4043 8.68492 11.35 8.6052 11.3112V9.8545H18.4712C18.5575 9.8545 18.6277 9.93082 18.6277 10.0246V11.9286V11.9312C18.627 16.1882 15.4404 19.6717 11.5033 19.6717C7.9084 19.6717 4.86848 16.7524 4.43219 12.8811C4.41254 12.7066 4.26645 12.5822 4.10578 12.6038C3.9452 12.6251 3.83094 12.784 3.85059 12.9585C4.1966 16.0287 6.05547 18.5455 8.55484 19.6717H2.6043C2.27109 19.6717 2 19.9663 2 20.3284C2 21.2501 2.69008 22 3.53832 22H16.1164C16.2782 22 16.4094 21.8575 16.4094 21.6817C16.4094 21.5058 16.2782 21.3633 16.1164 21.3633H3.53832C3.01316 21.3633 2.58594 20.899 2.58594 20.3284C2.58594 20.3174 2.59418 20.3084 2.6043 20.3084H20.4023C20.4124 20.3084 20.4206 20.3174 20.4206 20.3284C20.4206 20.899 19.9934 21.3633 19.4682 21.3633H17.4836C17.3218 21.3633 17.1906 21.5058 17.1906 21.6817C17.1906 21.8575 17.3218 22 17.4836 22H19.4682C20.3165 22 21.0066 21.2501 21.0066 20.3284C21.0066 19.9662 20.7355 19.6717 20.4023 19.6717ZM9.50535 13.1283C9.52992 13.1552 9.54344 13.1909 9.54344 13.2289V15.8905C9.54344 15.9693 9.48445 16.0334 9.41191 16.0334H7.21238C7.13988 16.0334 7.0809 15.9693 7.0809 15.8905V13.2289C7.0809 13.1909 7.09441 13.1552 7.11898 13.1283L8.01918 12.1408V13.0464C8.01918 13.2222 8.15035 13.3648 8.31215 13.3648C8.47395 13.3648 8.60512 13.2222 8.60512 13.0464V12.1408L9.50535 13.1283ZM19.1535 12.9769H19.7996C20.1154 12.9769 20.3722 13.256 20.3722 13.5991C20.3722 15.0259 19.3575 16.1992 18.0713 16.3137C18.6354 15.3194 19.0139 14.188 19.1535 12.9769ZM19.2139 11.8447H19.7996C20.6898 11.8447 21.4141 12.6317 21.4141 13.5991C21.4141 15.7258 19.8219 17.456 17.8649 17.456H17.2984C17.4277 17.296 17.5514 17.1306 17.6691 16.9605H17.8649C19.5705 16.9605 20.9582 15.4526 20.9582 13.5991C20.9582 12.9049 20.4384 12.3402 19.7996 12.3402H19.2044C19.2117 12.1757 19.2137 12.0094 19.2139 11.8447Z" fill="black"/>
<path d="M11.1175 8.3738C11.2774 8.3738 11.407 8.233 11.407 8.0593C11.407 7.27986 12.1787 7.22782 12.1787 6.14454C12.1787 5.06019 11.407 5.0107 11.407 4.22952C11.407 3.45084 12.1787 3.39715 12.1787 2.3145C12.1787 2.1408 12.0491 2 11.8893 2C11.7295 2 11.5999 2.1408 11.5999 2.3145C11.5999 3.09398 10.8281 3.14615 10.8281 4.22952C10.8281 5.31399 11.5999 5.36327 11.5999 6.14454C11.5999 6.92393 10.8281 6.97606 10.8281 8.0593C10.8281 8.233 10.9577 8.3738 11.1175 8.3738Z" fill="#60A171"/>
<path d="M13.305 8.3738C13.4649 8.3738 13.5945 8.233 13.5945 8.0593C13.5945 7.27986 14.3662 7.22782 14.3662 6.14454C14.3662 5.06019 13.5945 5.0107 13.5945 4.22952C13.5945 3.45084 14.3662 3.39715 14.3662 2.3145C14.3662 2.1408 14.2366 2 14.0768 2C13.917 2 13.7874 2.1408 13.7874 2.3145C13.7874 3.09398 13.0156 3.14615 13.0156 4.22952C13.0156 5.31399 13.7874 5.36327 13.7874 6.14454C13.7874 6.92393 13.0156 6.97606 13.0156 8.0593C13.0156 8.233 13.1452 8.3738 13.305 8.3738Z" fill="#60A171"/>
<path d="M8.93004 8.3738C9.08988 8.3738 9.21945 8.233 9.21945 8.0593C9.21945 7.27986 9.99121 7.22782 9.99121 6.14454C9.99121 5.06019 9.21945 5.0107 9.21945 4.22952C9.21945 3.45084 9.99121 3.39715 9.99121 2.3145C9.99121 2.1408 9.86164 2 9.7018 2C9.54195 2 9.41238 2.1408 9.41238 2.3145C9.41238 3.09398 8.64062 3.14615 8.64062 4.22952C8.64062 5.31399 9.41238 5.36327 9.41238 6.14454C9.41238 6.92393 8.64062 6.97606 8.64062 8.0593C8.64062 8.233 8.7702 8.3738 8.93004 8.3738Z" fill="#60A171"/>
</svg>
