<svg width="24" height="24" viewBox="0 0 24 24" fill="none" xmlns="http://www.w3.org/2000/svg">
<path d="M21.6692 19.9999H20.6692V13.6666C20.669 13.4825 20.5197 13.3334 20.3356 13.3335C20.227 13.3336 20.1252 13.3866 20.0628 13.4756L15.3961 20.1422C15.2906 20.2931 15.3274 20.501 15.4783 20.6064C15.5343 20.6455 15.6008 20.6665 15.6691 20.6666H20.0025V21.6666C20.0025 21.8507 20.1517 21.9999 20.3358 21.9999C20.5199 21.9999 20.6692 21.8507 20.6692 21.6666V20.6666H21.6692C21.8533 20.6666 22.0025 20.5173 22.0025 20.3332C22.0025 20.1492 21.8533 19.9999 21.6692 19.9999ZM20.0025 19.9999H16.3091L20.0025 14.7239V19.9999Z" fill="black"/>
<path d="M15.6641 21.3336H11.7177L15.3868 17.0133C15.3951 17.0033 15.4029 16.993 15.4101 16.9822C16.1004 15.9607 15.8704 14.5775 14.8868 13.8343C13.6907 12.9749 12.0244 13.2478 11.1651 14.4439C10.8392 14.8974 10.664 15.4418 10.6641 16.0003C10.6641 16.1843 10.8133 16.3336 10.9974 16.3336C11.1815 16.3336 11.3307 16.1843 11.3307 16.0003C11.3306 14.8957 12.226 14.0002 13.3305 14C13.7492 14 14.1573 14.1313 14.4974 14.3756C15.1865 14.9035 15.3469 15.8759 14.8641 16.5973L10.7434 21.4512C10.6243 21.5916 10.6415 21.802 10.7819 21.9211C10.8421 21.9722 10.9184 22.0002 10.9974 22.0002H15.6641C15.8482 22.0002 15.9974 21.851 15.9974 21.6669C15.9974 21.4828 15.8482 21.3336 15.6641 21.3336Z" fill="black"/>
<path d="M11.0074 19.673C11.0144 19.489 10.8708 19.3343 10.6869 19.3273C10.6868 19.3273 10.6868 19.3273 10.6867 19.3273C6.33795 19.1659 2.84755 15.6818 2.67834 11.3333H4.00001C4.1841 11.3333 4.33335 11.1841 4.33335 11C4.33335 10.8159 4.1841 10.6667 4.00001 10.6667H2.67834C2.84513 6.32587 6.32586 2.84529 10.6667 2.67867V3.66667C10.6667 3.85075 10.816 4 11.0001 4C11.1841 4 11.3334 3.85075 11.3334 3.66667V2.67867C15.6148 2.84425 19.0704 6.2345 19.3175 10.512L18.0174 9.212C17.885 9.08408 17.674 9.08775 17.5461 9.22016C17.4214 9.34933 17.4214 9.55412 17.5461 9.68333L19.4068 11.544C19.4418 11.5864 19.487 11.6193 19.5381 11.6397C19.5512 11.6436 19.5644 11.6468 19.5778 11.6493C19.6007 11.6576 19.6243 11.6633 19.6485 11.6663C19.6518 11.6663 19.6548 11.6663 19.6581 11.6663C19.6615 11.6663 19.6645 11.6663 19.6675 11.6663C19.6928 11.6644 19.7179 11.6595 19.7421 11.6517C19.7558 11.65 19.7694 11.6475 19.7828 11.644C19.8279 11.628 19.869 11.6022 19.9031 11.5687L21.7891 9.68333C21.917 9.55091 21.9134 9.33991 21.781 9.212C21.6518 9.08725 21.447 9.08725 21.3178 9.212L19.9855 10.5433C19.7473 5.76542 15.8076 2.01171 11.0237 2.00467C11.0154 2.00433 11.0084 2 11.0001 2C10.9917 2 10.9847 2.00433 10.9764 2.00467C6.02428 2.01146 2.01146 6.02425 2.00467 10.9763C2.00467 10.9847 2 10.9917 2 11C2 11.0083 2.00433 11.0153 2.00467 11.0237C2.01296 15.8535 5.83549 19.8141 10.6621 19.9937H10.6744C10.8535 19.9936 11.0006 19.852 11.0074 19.673Z" fill="black"/>
<path d="M15.4771 6.52142C15.3469 6.3913 15.1359 6.3913 15.0058 6.52142L11.4238 10.1031C11.1531 9.98242 10.844 9.98242 10.5734 10.1031L8.8774 8.40709C8.74498 8.27921 8.53394 8.28288 8.40606 8.4153C8.28131 8.54446 8.28131 8.74925 8.40606 8.87842L10.0987 10.5711C9.86107 11.0686 10.0717 11.6646 10.5693 11.9022C10.9512 12.0846 11.4066 12.0064 11.7058 11.7071C12.0065 11.4088 12.084 10.9522 11.8984 10.5714L15.4771 6.99276C15.6072 6.86259 15.6072 6.65159 15.4771 6.52142ZM11.2345 11.2353C11.2345 11.2354 11.2345 11.2354 11.2344 11.2354C11.1026 11.3615 10.8949 11.3615 10.7631 11.2354C10.6329 11.1053 10.6329 10.8942 10.763 10.764C10.8932 10.6338 11.1042 10.6338 11.2344 10.7639C11.3646 10.8941 11.3646 11.1052 11.2345 11.2353Z" fill="black"/>
</svg>
