<svg width="24" height="24" viewBox="0 0 24 24" fill="none" xmlns="http://www.w3.org/2000/svg">
<path d="M22 14.9572C22 14.1188 21.3793 13.4367 20.6163 13.4367H20.386C20.7205 12.6716 20.8965 11.8292 20.8965 10.9738C20.8965 10.131 20.7329 9.32168 20.4107 8.56611L20.6178 7.4813C20.6756 7.17859 20.607 6.86726 20.4296 6.62722C20.2521 6.38709 19.989 6.24939 19.7075 6.24939H19.3308C19.0493 6.24939 18.7862 6.38709 18.6087 6.62722C18.4313 6.86734 18.3627 7.17864 18.4205 7.4813L18.6364 8.61226C18.5936 8.87457 18.5375 9.13234 18.4684 9.3847C18.4331 9.30984 18.3954 9.23622 18.3545 9.16428C17.9447 8.44214 17.7471 7.55831 17.7829 6.60833C17.7861 6.52544 17.7847 6.44114 17.7789 6.35782C17.7176 5.4748 17.144 4.73936 16.3884 4.51113L16.4445 3.72023L17.1962 3.64244C17.3573 3.62579 17.4756 3.46877 17.4605 3.29174C17.4453 3.11476 17.3025 2.985 17.1413 3.0014L15.7335 3.14704C15.5724 3.1637 15.4541 3.32072 15.4693 3.49774C15.4836 3.66451 15.6112 3.78955 15.7606 3.78955C15.7698 3.78955 15.7791 3.78904 15.7884 3.78809L15.8525 3.78148L15.8058 4.43953C15.3547 4.46026 14.9316 4.65299 14.5966 4.99601C14.2129 5.38886 13.9928 5.94457 13.9928 6.52063C13.9928 6.54956 13.9933 6.57833 13.9944 6.60708C14.0074 6.95701 13.9863 7.30385 13.9326 7.64107C13.8795 7.63725 13.8263 7.63463 13.7729 7.63463C13.5237 7.63463 13.2801 7.67558 13.0439 7.75508C13.1175 7.3114 13.2441 6.98315 13.4135 6.80137C13.5292 6.67714 13.5314 6.47329 13.4184 6.34614C13.3053 6.21891 13.1198 6.21646 13.0041 6.34078C12.6618 6.70805 12.5088 7.29836 12.4413 7.79753C12.172 7.69078 11.892 7.63605 11.6048 7.63493C11.391 7.04977 11.2918 6.38259 11.3178 5.69604C11.3209 5.61319 11.3195 5.52893 11.3138 5.44557C11.2733 4.86346 11.0101 4.34556 10.6191 3.99465C10.6721 3.97245 10.7281 3.95258 10.7875 3.93532C10.9439 3.88991 11.0372 3.71374 10.9959 3.54187C10.9546 3.36995 10.7944 3.26732 10.6378 3.31282C10.3846 3.38631 10.1736 3.49495 9.99785 3.62313C9.85828 3.57402 9.71203 3.54209 9.56102 3.53032C9.02859 3.48886 8.52051 3.68537 8.13141 4.08376C7.7477 4.47661 7.52762 5.03233 7.52762 5.60843C7.52762 5.63744 7.52816 5.66633 7.52926 5.69484C7.56402 6.62825 7.36023 7.52354 6.93992 8.28388C6.71941 8.68278 6.58133 9.13457 6.53637 9.59911C6.50184 9.61276 6.46734 9.6268 6.43324 9.64234C6.27844 9.71278 6.13316 9.80065 5.99777 9.90491C5.99539 9.73579 6.00652 9.54966 6.04047 9.34877C6.07 9.17393 5.96496 9.00593 5.8059 8.97347C5.64691 8.94111 5.49391 9.05649 5.46438 9.23128C5.39699 9.63023 5.40055 9.98484 5.43422 10.2793C5.15254 10.2871 4.87914 10.3497 4.61855 10.4684C3.60797 10.9283 3.01918 12.1166 3.11332 13.4661C2.47934 13.6046 2 14.2205 2 14.9572C2 15.6999 2.48723 16.3195 3.12883 16.4514C3.50887 17.7321 4.43371 18.8889 5.73773 19.7122C7.05312 20.5427 8.70859 21 10.3992 21H13.6007C14.9105 21 16.1989 20.7288 17.3268 20.2156C17.4763 20.1476 17.5473 19.9593 17.4855 19.795C17.4236 19.6307 17.2522 19.5526 17.1027 19.6207C16.0452 20.1018 14.8343 20.3561 13.6007 20.3561H10.3992C8.80941 20.3561 7.25758 19.9292 6.02961 19.1539C4.93074 18.4601 4.13395 17.5175 3.76 16.4777H20.24C19.8923 17.4417 19.1759 18.3302 18.1947 19.0055C18.0575 19.0999 18.016 19.2985 18.1019 19.4492C18.1575 19.5468 18.2529 19.6003 18.3505 19.6003C18.4036 19.6003 18.4574 19.5845 18.5057 19.5512C19.6969 18.7314 20.5129 17.6611 20.8713 16.4514C21.5128 16.3195 22 15.6999 22 14.9572ZM16.5575 13.4367C16.8235 13.2187 17.0757 12.9801 17.3112 12.7214C18.264 11.6743 18.9059 10.3681 19.1775 8.92952H19.9177C20.1782 9.57314 20.3106 10.2598 20.3106 10.9738C20.3106 11.8381 20.1084 12.6872 19.7261 13.4367H16.5575ZM19.0636 7.03303C19.1293 6.94422 19.2266 6.89323 19.3308 6.89323H19.7075C19.8117 6.89323 19.909 6.94422 19.9747 7.03303C20.0404 7.12185 20.0657 7.23706 20.0443 7.34905L19.8655 8.28559H19.1727L18.9939 7.34905C18.9726 7.23706 18.9979 7.12193 19.0636 7.03303ZM12.3907 8.66227C12.2398 8.63703 12.1528 8.59672 12.1427 8.59187C11.9967 8.51851 11.8239 8.58796 11.7556 8.74816C11.687 8.90917 11.7502 9.10083 11.8967 9.17625C11.9138 9.18505 12.1931 9.3249 12.6484 9.3249C12.8711 9.3249 13.1358 9.29142 13.4323 9.19287C13.5872 9.1414 13.6748 8.96167 13.6279 8.79151C13.5811 8.62131 13.4175 8.52525 13.2627 8.57654C13.1615 8.61015 13.0661 8.63411 12.9766 8.65076C12.9761 8.62136 12.9757 8.55753 12.9779 8.47C13.2318 8.3435 13.4984 8.27856 13.7729 8.27856C14.826 8.27856 15.7577 9.26519 15.9881 10.6246C16.0143 10.7794 16.1374 10.8876 16.2758 10.8876C16.2936 10.8876 16.3116 10.8858 16.3298 10.8821C16.4888 10.8495 16.5938 10.6814 16.5641 10.5067C16.4296 9.71265 16.0845 8.9891 15.5924 8.46944C15.2747 8.13381 14.9038 7.89227 14.5088 7.75791C14.5704 7.37352 14.5946 6.97865 14.5798 6.5809C14.579 6.5609 14.5787 6.54085 14.5787 6.52068C14.5787 6.11679 14.7268 5.74265 14.9959 5.4672C15.2648 5.19192 15.6156 5.05606 15.9847 5.08495C16.6256 5.13483 17.1457 5.70312 17.1946 6.40697C17.1987 6.46517 17.1996 6.52394 17.1975 6.58163C17.1567 7.66159 17.3848 8.67252 17.8573 9.50502C17.9965 9.75034 18.0955 10.0174 18.152 10.2988C17.8451 11.0238 17.4229 11.6881 16.8969 12.2661C16.7336 12.4455 16.5614 12.6141 16.3818 12.7723C16.4652 12.5338 16.5287 12.2832 16.5706 12.0238C16.5988 11.8487 16.4925 11.6816 16.3332 11.6506C16.1741 11.6195 16.0219 11.7364 15.9936 11.9114C15.8998 12.4934 15.6788 13.0195 15.3542 13.4367H10.2432C10.3044 12.8322 10.2209 12.2081 9.99785 11.6165C9.84762 11.218 9.64219 10.8579 9.39367 10.5499C9.64496 9.2294 10.5615 8.27851 11.5956 8.27851C11.8701 8.27851 12.1367 8.34346 12.3907 8.46996C12.3891 8.55607 12.3898 8.62183 12.3907 8.66227ZM7.44066 8.61814C7.92109 7.74903 8.15418 6.72904 8.11465 5.66831C8.11391 5.64843 8.11352 5.62843 8.11352 5.60838C8.11352 5.2045 8.26168 4.83032 8.53078 4.55487C8.79176 4.28761 9.13012 4.15227 9.48738 4.17098C9.36656 4.36003 9.28559 4.54924 9.2323 4.70983C9.13031 4.57569 8.94914 4.55525 8.82441 4.66493C8.69816 4.77615 8.67785 4.97875 8.77902 5.11749C8.79543 5.13994 9.1884 5.66899 9.87211 5.75566C9.88352 5.75712 9.89484 5.75785 9.90605 5.75785C10.0528 5.75785 10.1795 5.63689 10.1967 5.47274C10.2153 5.29614 10.1 5.13642 9.93926 5.11603C9.86871 5.1071 9.80316 5.09015 9.74203 5.06885C9.78258 4.90265 9.87871 4.62209 10.0948 4.37316C10.449 4.60706 10.6965 5.01983 10.7295 5.49446C10.7336 5.55271 10.7345 5.6116 10.7323 5.66925C10.7053 6.38477 10.7996 7.08471 11.0057 7.71374C10.5562 7.83484 10.1327 8.09247 9.77598 8.46893C9.37816 8.88878 9.07652 9.44179 8.9043 10.0575C8.7748 9.95243 8.63883 9.85829 8.49641 9.77777C8.05715 9.52923 7.59543 9.4223 7.14762 9.45754C7.19934 9.16144 7.2982 8.87586 7.44066 8.61814ZM20.6163 15.8338H3.38367C2.94379 15.8338 2.58594 15.4406 2.58594 14.9572C2.58594 14.4738 2.94379 14.0806 3.38367 14.0806H5.86238C6.02418 14.0806 6.15535 13.9365 6.15535 13.7586C6.15535 13.5808 6.02418 13.4367 5.86238 13.4367H3.69883C3.61754 12.3587 4.06574 11.4168 4.84273 11.0632C5.11285 10.9402 5.40246 10.897 5.70355 10.9348C5.80379 10.9477 5.90328 10.9022 5.96617 10.8153C6.15473 10.5547 6.3873 10.3601 6.65742 10.2372C7.14727 10.0142 7.70508 10.0543 8.22824 10.3503C8.76766 10.6554 9.20387 11.1926 9.45652 11.8629C9.65035 12.3772 9.71711 12.9182 9.65246 13.4367H7.13816C6.97637 13.4367 6.8452 13.5808 6.8452 13.7586C6.8452 13.9365 6.97637 14.0806 7.13816 14.0806H20.6163C21.0562 14.0806 21.4141 14.4738 21.4141 14.9572C21.4141 15.4406 21.0562 15.8338 20.6163 15.8338Z" fill="black"/>
<path d="M7.34055 17.4899C7.34055 17.3121 7.20938 17.168 7.04758 17.168H6.26172C6.09992 17.168 5.96875 17.3121 5.96875 17.4899C5.96875 17.6677 6.09992 17.8118 6.26172 17.8118H7.04758C7.20938 17.8118 7.34055 17.6677 7.34055 17.4899Z" fill="#60A171"/>
<path d="M6.93359 18.9598H7.71945C7.88125 18.9598 8.01242 18.8157 8.01242 18.6379C8.01242 18.46 7.88125 18.3159 7.71945 18.3159H6.93359C6.7718 18.3159 6.64062 18.46 6.64062 18.6379C6.64062 18.8157 6.7718 18.9598 6.93359 18.9598Z" fill="#60A171"/>
<path d="M14.9655 17.4899C14.9655 17.3121 14.8344 17.168 14.6726 17.168H13.8867C13.7249 17.168 13.5938 17.3121 13.5938 17.4899C13.5938 17.6677 13.7249 17.8118 13.8867 17.8118H14.6726C14.8344 17.8118 14.9655 17.6677 14.9655 17.4899Z" fill="#60A171"/>
<path d="M15.3867 17.9302C15.2249 17.9302 15.0938 18.0743 15.0938 18.2521C15.0938 18.43 15.2249 18.5741 15.3867 18.5741H16.1726C16.3344 18.5741 16.4655 18.43 16.4655 18.2521C16.4655 18.0743 16.3344 17.9302 16.1726 17.9302H15.3867Z" fill="#60A171"/>
<path d="M13.4883 18.5049C13.3265 18.5049 13.1953 18.649 13.1953 18.8268C13.1953 19.0047 13.3265 19.1488 13.4883 19.1488H14.2741C14.4359 19.1488 14.5671 19.0047 14.5671 18.8268C14.5671 18.649 14.4359 18.5049 14.2741 18.5049H13.4883Z" fill="#60A171"/>
</svg>
