<svg width="51" height="38" viewBox="0 0 51 38" fill="none" xmlns="http://www.w3.org/2000/svg">
<rect width="51.0004" height="38" fill="white"/>
<path d="M30.2292 10.498H20.7656V27.5024H30.2292V10.498Z" fill="#FF5F00"/>
<path d="M21.3691 19C21.3691 15.5451 22.9915 12.4807 25.485 10.4979C23.6524 9.05582 21.3391 8.18457 18.8155 8.18457C12.8369 8.18457 8 13.0215 8 19C8 24.9786 12.8369 29.8155 18.8155 29.8155C21.3391 29.8155 23.6524 28.9443 25.485 27.5022C22.9915 25.5494 21.3691 22.455 21.3691 19Z" fill="#EB001B"/>
<path d="M43.0007 19C43.0007 24.9786 38.1637 29.8155 32.1852 29.8155C29.6616 29.8155 27.3482 28.9443 25.5156 27.5022C28.0392 25.5194 29.6315 22.455 29.6315 19C29.6315 15.5451 28.0092 12.4807 25.5156 10.4979C27.3482 9.05582 29.6616 8.18457 32.1852 8.18457C38.1637 8.18457 43.0007 13.0515 43.0007 19Z" fill="#F79E1B"/>
</svg>
