<svg width="38" height="38" viewBox="0 0 38 38" fill="none" xmlns="http://www.w3.org/2000/svg">
<rect width="38" height="38" fill="white"/>
<path d="M25.8728 14.0811C25.9072 13.801 25.9252 13.5159 25.9252 13.2265C25.9252 10.7941 23.9534 8.82227 21.521 8.82227H14.1606C13.6976 8.82227 13.3023 9.15661 13.2255 9.61316L10.5134 25.733C10.4161 26.3115 10.862 26.8386 11.4485 26.8386H14.1404C14.6033 26.8386 15.0061 26.5045 15.0828 26.0479C15.0828 26.0479 15.0873 26.0211 15.0954 25.973H15.0955L14.7204 28.2027C14.6346 28.7125 15.0276 29.1771 15.5446 29.1771H17.8996C18.3076 29.1771 18.6561 28.8824 18.7237 28.48L19.3928 24.5036C19.5081 23.8182 20.1015 23.3163 20.7966 23.3163H21.4153C24.7758 23.3163 27.5 20.592 27.5 17.2315C27.5 15.9311 26.8572 14.7817 25.8728 14.0811Z" fill="#002987"/>
<path d="M25.8751 14.0815C25.4539 17.5076 22.5339 20.1606 18.994 20.1606H16.94C16.4764 20.1606 16.076 20.4693 15.9505 20.9059L14.7227 28.203C14.637 28.7128 15.03 29.1775 15.5469 29.1775H17.9019C18.31 29.1775 18.6584 28.8828 18.7261 28.4804L19.3951 24.504C19.5104 23.8186 20.1039 23.3167 20.7989 23.3167H21.4176C24.7781 23.3167 27.5023 20.5924 27.5023 17.2319C27.5023 15.9316 26.8596 14.7821 25.8751 14.0815Z" fill="#0085CC"/>
<path d="M16.9427 20.1604H18.9967C22.5366 20.1604 25.4567 17.5075 25.8778 14.0814C25.2462 13.6319 24.4743 13.3667 23.64 13.3667H18.2789C17.6686 13.3667 17.1474 13.8075 17.0461 14.4094L15.9531 20.9057C16.0787 20.4691 16.4791 20.1604 16.9427 20.1604Z" fill="#00186A"/>
</svg>
