<svg width="200" height="60" viewBox="0 0 200 60" fill="none" xmlns="http://www.w3.org/2000/svg">
<rect width="200" height="60" fill="white"/>
<path d="M86.3832 28.2324C91.0525 29.3532 92.9561 31.0937 92.9561 34.2404C92.9561 37.9636 90.0754 40.3696 85.6168 40.3696C82.4653 40.3696 79.5437 39.2641 77.1692 37.1707C77.1204 37.1277 77.0906 37.0676 77.0861 37.0032C77.0817 36.9388 77.1029 36.8752 77.1452 36.826L79.2434 34.3616C79.2648 34.3364 79.2911 34.3156 79.3207 34.3006C79.3503 34.2855 79.3826 34.2764 79.4159 34.2738C79.4491 34.2712 79.4824 34.2752 79.5141 34.2855C79.5457 34.2958 79.575 34.3122 79.6001 34.3337C81.6412 36.0784 83.4658 36.8219 85.7021 36.8219C87.7164 36.8219 88.9678 35.9607 88.9678 34.5767C88.9678 33.327 88.3488 32.6288 84.6812 31.7948C80.3735 30.7658 77.8799 29.4347 77.8799 25.6718C77.8799 22.1631 80.7705 19.7125 84.9076 19.7125C87.7206 19.7125 90.1297 20.5354 92.268 22.2292C92.3709 22.3114 92.3921 22.459 92.3152 22.5662L90.4434 25.1699C90.4238 25.1967 90.3991 25.2193 90.3706 25.2366C90.3421 25.2539 90.3105 25.2655 90.2775 25.2707C90.2444 25.2758 90.2107 25.2745 90.1782 25.2668C90.1457 25.259 90.1151 25.2451 90.0881 25.2256C88.2917 23.9029 86.5785 23.261 84.8497 23.261C83.0674 23.261 81.8689 24.1068 81.8689 25.3634C81.8689 26.6931 82.5528 27.3267 86.3839 28.2303M103.043 24.5009C101.111 24.5009 99.5262 25.2527 98.2184 26.7913V25.0578C98.2184 24.9921 98.192 24.929 98.1449 24.8826C98.0978 24.8361 98.034 24.81 97.9674 24.81H94.5368C94.4702 24.81 94.4064 24.8361 94.3593 24.8826C94.3122 24.929 94.2858 24.9921 94.2858 25.0578V44.3211C94.2858 44.4569 94.3986 44.5683 94.5368 44.5683H97.9681C98.107 44.5683 98.2198 44.4569 98.2198 44.3204V38.2393C99.5269 39.6874 101.113 40.3961 103.045 40.3961C106.637 40.3961 110.271 37.667 110.271 32.4485C110.271 27.2299 106.635 24.5009 103.043 24.5009ZM106.279 32.4492C106.279 35.1058 104.622 36.9604 102.249 36.9604C99.9013 36.9604 98.1317 35.0216 98.1317 32.4492C98.1317 29.8768 99.9013 27.9379 102.249 27.9379C104.584 27.9379 106.28 29.835 106.28 32.4492M119.588 24.5009C114.963 24.5009 111.34 28.0166 111.34 32.5069C111.34 36.9472 114.937 40.426 119.53 40.426C124.171 40.426 127.805 36.9214 127.805 32.4492C127.805 27.9922 124.195 24.5002 119.587 24.5002M119.587 36.9876C117.126 36.9876 115.272 35.0362 115.272 32.4485C115.272 29.8503 117.063 27.9651 119.531 27.9651C122.005 27.9651 123.874 29.9165 123.874 32.5056C123.874 35.1023 122.07 36.9869 119.587 36.9869M137.681 24.81C137.82 24.81 137.932 24.9214 137.932 25.0578V27.9699C137.932 28.0025 137.925 28.0347 137.913 28.0647C137.9 28.0948 137.882 28.1221 137.859 28.1451C137.835 28.1682 137.808 28.1864 137.777 28.1989C137.747 28.2114 137.714 28.2178 137.681 28.2178H133.906V35.2221C133.906 36.329 134.398 36.8219 135.499 36.8219C136.2 36.8256 136.891 36.6607 137.513 36.3415C137.551 36.3227 137.594 36.3139 137.637 36.3159C137.68 36.3178 137.721 36.3306 137.758 36.3529C137.794 36.3752 137.824 36.4063 137.845 36.4433C137.866 36.4803 137.877 36.5219 137.877 36.5643V39.3365C137.877 39.4249 137.828 39.5084 137.75 39.5523C136.788 40.0904 135.767 40.3411 134.536 40.3411C131.509 40.3411 129.974 38.7976 129.974 35.7518V28.2185H128.324C128.291 28.2184 128.259 28.2119 128.229 28.1994C128.198 28.1869 128.171 28.1686 128.148 28.1456C128.124 28.1226 128.106 28.0953 128.094 28.0653C128.081 28.0352 128.075 28.0031 128.075 27.9706V25.0578C128.075 24.9214 128.186 24.81 128.324 24.81H129.974V20.9977C129.974 20.8612 130.087 20.7498 130.226 20.7498H133.657C133.796 20.7498 133.908 20.8612 133.908 20.9977V24.81H137.684M156.699 24.8246C156.802 24.8246 156.896 24.8873 156.933 24.9847L160.942 35.3119L164.601 24.9903C164.618 24.9416 164.65 24.8993 164.692 24.8694C164.735 24.8395 164.786 24.8233 164.838 24.8232H168.411C168.451 24.8231 168.492 24.833 168.528 24.8519C168.564 24.8708 168.595 24.8982 168.618 24.9317C168.641 24.9652 168.655 25.0037 168.66 25.0439C168.664 25.0841 168.658 25.1247 168.643 25.1622L162.69 40.3529C161.456 43.4878 160.055 44.6532 157.522 44.6532C156.167 44.6532 155.071 44.3761 153.856 43.7273C153.8 43.6975 153.758 43.6477 153.738 43.5882C153.718 43.5287 153.722 43.4639 153.749 43.407L154.912 40.8869C154.926 40.8558 154.947 40.828 154.972 40.805C154.998 40.782 155.028 40.7644 155.06 40.7532C155.093 40.7428 155.128 40.7391 155.163 40.7423C155.197 40.7456 155.231 40.7557 155.261 40.772C155.912 41.1236 156.549 41.3011 157.153 41.3011C157.901 41.3011 158.449 41.0588 159.006 39.8377L154.099 28.2185H150.894V39.8412C150.894 39.9784 150.781 40.0897 150.643 40.0897H147.212C147.179 40.0897 147.146 40.0833 147.116 40.0708C147.085 40.0583 147.057 40.04 147.034 40.0169C147.011 39.9938 146.992 39.9664 146.98 39.9363C146.967 39.9061 146.961 39.8738 146.961 39.8412V28.2185H145.313C145.246 28.2179 145.182 28.1916 145.135 28.1451C145.088 28.0986 145.061 28.0357 145.061 27.9699V25.0439C145.061 24.9067 145.174 24.7954 145.312 24.7954H146.96V24.0783C146.96 20.7464 148.635 18.9836 151.805 18.9836C153.107 18.9836 153.977 19.189 154.657 19.3874C154.764 19.4201 154.835 19.5169 154.835 19.6255V22.4799C154.836 22.5193 154.827 22.5583 154.809 22.5936C154.791 22.6289 154.765 22.6594 154.732 22.6826C154.7 22.7058 154.663 22.721 154.623 22.7269C154.584 22.7328 154.543 22.7293 154.505 22.7166C153.862 22.5049 153.287 22.3643 152.572 22.3643C151.374 22.3643 150.838 22.979 150.838 24.3568V24.8246H156.698H156.699ZM143.21 24.81C143.348 24.81 143.461 24.9214 143.461 25.0578V39.8405C143.461 39.977 143.348 40.0884 143.209 40.0884H139.778C139.712 40.0884 139.648 40.0623 139.6 40.0158C139.553 39.9693 139.527 39.9063 139.526 39.8405V25.0578C139.526 24.9214 139.639 24.81 139.777 24.81H143.209M141.512 18.0793C142.164 18.0793 142.79 18.3353 143.252 18.7909C143.713 19.2466 143.972 19.8646 143.972 20.509C143.972 21.1534 143.713 21.7714 143.252 22.227C142.79 22.6827 142.164 22.9386 141.512 22.9386C140.859 22.9386 140.233 22.6827 139.772 22.227C139.31 21.7714 139.051 21.1534 139.051 20.509C139.051 19.8646 139.31 19.2466 139.772 18.7909C140.233 18.3353 140.859 18.0793 141.512 18.0793ZM171.573 29.5621C171.255 29.5633 170.941 29.5024 170.647 29.383C170.354 29.2636 170.087 29.088 169.862 28.8664C169.638 28.6447 169.46 28.3814 169.339 28.0916C169.218 27.8017 169.157 27.4911 169.158 27.1777C169.158 26.8629 169.221 26.5513 169.343 26.2605C169.465 25.9697 169.643 25.7056 169.869 25.483C170.094 25.2605 170.362 25.084 170.656 24.9636C170.951 24.8433 171.267 24.7813 171.585 24.7814C171.903 24.7801 172.217 24.8407 172.511 24.96C172.804 25.0792 173.071 25.2547 173.295 25.4762C173.52 25.6978 173.698 25.961 173.819 26.2508C173.94 26.5405 174.001 26.8511 174 27.1645C174 27.4793 173.937 27.7911 173.815 28.082C173.693 28.373 173.515 28.6373 173.289 28.8601C173.064 29.0828 172.796 29.2594 172.502 29.38C172.207 29.5006 171.891 29.5627 171.573 29.5628M171.585 25.0188C170.349 25.0188 169.412 25.99 169.412 27.1784C169.412 28.3668 170.342 29.3247 171.573 29.3247C172.809 29.3247 173.746 28.3542 173.746 27.1652C173.746 25.9768 172.816 25.0188 171.585 25.0188ZM172.121 27.4102L172.804 28.3542H172.228L171.614 27.4882H171.085V28.3542H170.602V25.8515H171.733C172.321 25.8515 172.709 26.1494 172.709 26.65C172.709 27.0607 172.469 27.3114 172.12 27.4088M171.711 26.281H171.084V27.0719H171.711C172.026 27.0719 172.212 26.9201 172.212 26.675C172.212 26.4175 172.026 26.2803 171.711 26.2803M48.1941 8C35.9366 8 26 17.9484 26 30.0529C25.9993 41.4264 34.7712 50.6076 45.9994 52H50.3889C61.6171 50.6076 70.389 41.4264 70.389 30.0522C70.389 17.9484 60.4517 8 48.1949 8H48.1941ZM58.3726 39.6108C58.278 39.7641 58.1538 39.8975 58.007 40.0033C57.8601 40.1091 57.6936 40.1853 57.5169 40.2275C57.3402 40.2697 57.1568 40.277 56.9772 40.249C56.7977 40.2211 56.6254 40.1585 56.4704 40.0647C51.2582 36.9193 44.6986 36.2092 36.973 37.9518C36.796 37.992 36.6126 37.9973 36.4335 37.9675C36.2544 37.9376 36.083 37.8732 35.9291 37.7779C35.7752 37.6826 35.6419 37.5583 35.5367 37.412C35.4315 37.2658 35.3566 37.1005 35.3162 36.9256C35.2755 36.7507 35.2702 36.5696 35.3005 36.3926C35.3308 36.2157 35.3961 36.0464 35.4928 35.8944C35.5895 35.7425 35.7155 35.6108 35.8638 35.507C36.012 35.4032 36.1796 35.3293 36.3568 35.2896C44.8114 33.382 52.0633 34.2035 57.9136 37.7332C58.2264 37.9225 58.4503 38.2266 58.5362 38.5787C58.6221 38.9309 58.563 39.3023 58.3719 39.6115L58.3726 39.6108ZM61.0883 33.6431C60.8482 34.0291 60.4627 34.3052 60.0165 34.4107C59.5703 34.5162 59.1 34.4424 58.7089 34.2056C52.7444 30.5855 43.6496 29.5363 36.5923 31.652C36.1531 31.7829 35.6792 31.7366 35.2745 31.5233C34.8697 31.31 34.5671 30.947 34.4328 30.5138C34.1578 29.6087 34.6725 28.6571 35.5869 28.3835C43.6489 25.9677 53.6694 27.1373 60.5201 31.2935C60.9109 31.5307 61.1903 31.9115 61.297 32.352C61.4037 32.7926 61.3289 33.257 61.089 33.6431H61.0883ZM61.3224 27.429C54.1678 23.2338 42.3671 22.8481 35.5376 24.8949C35.0106 25.0526 34.4419 24.9971 33.9564 24.7407C33.4709 24.4843 33.1084 24.0479 32.9487 23.5276C32.789 23.0073 32.8452 22.4457 33.1049 21.9662C33.3646 21.4868 33.8065 21.1289 34.3334 20.9712C42.1732 18.6216 55.2063 19.0755 63.4424 23.9022C63.6769 24.0395 63.8817 24.2211 64.0452 24.4366C64.2086 24.6521 64.3274 24.8973 64.3948 25.1581C64.4623 25.419 64.477 25.6904 64.4382 25.9569C64.3994 26.2234 64.3077 26.4797 64.1686 26.7112C64.0296 26.943 63.8457 27.1454 63.6274 27.3069C63.4091 27.4684 63.1607 27.5858 62.8964 27.6524C62.6321 27.719 62.3571 27.7335 62.0872 27.695C61.8172 27.6566 61.5576 27.5659 61.3231 27.4283L61.3224 27.429Z" fill="black"/>
</svg>
