<svg width="60" height="38" viewBox="0 0 60 38" fill="none" xmlns="http://www.w3.org/2000/svg">
<rect width="60" height="38" fill="white"/>
<path d="M11.0922 17.0534C11.0922 16.5848 11.4833 16.4045 12.1312 16.4045C13.06 16.4045 14.2333 16.681 15.1622 17.1736V14.3498C14.1478 13.9533 13.1456 13.7971 12.1312 13.7971C9.65 13.7971 8 15.0708 8 17.1977C8 20.514 12.6444 19.9854 12.6444 21.4153C12.6444 21.968 12.1556 22.1483 11.4711 22.1483C10.4567 22.1483 9.1611 21.7397 8.13441 21.187V24.0468C9.2711 24.5275 10.42 24.7317 11.4711 24.7317C14.0133 24.7317 15.7611 23.4941 15.7611 21.3432C15.7489 17.7624 11.0922 18.3992 11.0922 17.0534V17.0534ZM19.3544 11.3939L16.3722 12.0187L16.36 21.6435C16.36 23.422 17.7167 24.7317 19.5256 24.7317C20.5278 24.7317 21.2611 24.5515 21.6644 24.3352V21.8959C21.2734 22.0521 19.3422 22.6048 19.3422 20.8265V16.5607H21.6644V14.0014H19.3422L19.3544 11.3939V11.3939ZM25.4656 14.8905L25.27 14.0014H22.63V24.5154H25.6856V17.3899C26.4066 16.4647 27.6289 16.6329 28.0078 16.765V14.0014C27.6167 13.8571 26.1867 13.5928 25.4656 14.8905V14.8905ZM28.7533 14.0014H31.8211V24.5154H28.7533V14.0014V14.0014ZM28.7533 13.0881L31.8211 12.4393V10L28.7533 10.6369V13.088V13.0881ZM38.2011 13.7971C37.0033 13.7971 36.2333 14.3498 35.8056 14.7344L35.6466 13.9894H32.9578V28L36.0133 27.3632L36.0256 23.9627C36.4656 24.2751 37.1133 24.7197 38.1889 24.7197C40.3767 24.7197 42.3689 22.9894 42.3689 19.1803C42.3567 15.6956 40.34 13.7971 38.2011 13.7971V13.7971ZM37.4678 22.0761C36.7467 22.0761 36.3188 21.8238 36.0256 21.5114L36.0133 17.0534C36.3311 16.705 36.7711 16.4647 37.4678 16.4647C38.58 16.4647 39.35 17.6903 39.35 19.2644C39.35 20.8745 38.5922 22.0761 37.4678 22.0761V22.0761ZM52 19.3004C52 16.2243 50.4844 13.7971 47.5878 13.7971C44.6788 13.7971 42.9188 16.2244 42.9188 19.2764C42.9188 22.8932 44.9967 24.7197 47.9788 24.7197C49.4333 24.7197 50.5333 24.3952 51.3644 23.9387V21.5354C50.5334 21.944 49.58 22.1964 48.37 22.1964C47.1844 22.1964 46.1333 21.7878 45.9989 20.3699H51.9756C51.9756 20.2136 52 19.5888 52 19.3004ZM45.9622 18.1589C45.9622 16.8011 46.8056 16.2363 47.5756 16.2363C48.3211 16.2363 49.1156 16.8011 49.1156 18.1589H45.9622Z" fill="#6772E5"/>
</svg>
