<svg width="60" height="38" viewBox="0 0 60 38" fill="none" xmlns="http://www.w3.org/2000/svg">
<rect width="60" height="38" fill="white"/>
<path d="M27.0664 25.7981H23.5023L25.7318 12.2457H29.2959L27.0664 25.7981ZM39.9877 12.577C39.2841 12.3023 38.1698 12 36.7901 12C33.2701 12 30.7917 13.8453 30.7762 16.4833C30.7472 18.4301 32.551 19.5113 33.9001 20.1602C35.2793 20.8234 35.748 21.2562 35.748 21.8475C35.734 22.7554 34.6338 23.1739 33.6077 23.1739C32.1844 23.1739 31.4217 22.9583 30.2629 22.4531L29.7937 22.2365L29.2949 25.2792C30.1312 25.6534 31.6711 25.9857 33.2701 26C37.01 26 39.4448 24.1832 39.4739 21.3719C39.4879 19.8289 38.5354 18.6467 36.4822 17.6807C35.2352 17.0604 34.472 16.6424 34.472 16.0082C34.4865 15.4312 35.118 14.8404 36.5252 14.8404C37.6836 14.8118 38.5349 15.0856 39.1794 15.3593L39.5024 15.5036L39.9872 12.577H39.9877ZM44.7246 20.9972C45.0181 20.2183 46.1478 17.2051 46.1478 17.2051C46.1328 17.2342 46.4408 16.4124 46.6166 15.9073L46.866 17.0752C46.866 17.0752 47.541 20.3197 47.6872 20.9967H44.7246V20.9972ZM49.1245 12.2452H46.3677C45.5173 12.2452 44.8713 12.4899 44.5047 13.3697L39.2099 25.7976H42.9503C42.9503 25.7976 43.5663 24.1246 43.698 23.7642H48.2747C48.3768 24.2403 48.6998 25.7976 48.6998 25.7976H52L49.1245 12.2457V12.2452ZM11.7459 14.0078C10.6492 13.3776 9.39869 12.871 8 12.5189L8.05859 12.2452H13.7931C14.5708 12.2737 15.2013 12.5184 15.4066 13.3845L16.6526 19.6113L16.6531 19.6122L17.0347 21.4866L20.5251 12.2452H24.2941L18.6918 25.7839H14.9224L11.7459 14.0078Z" fill="#1A1F71"/>
</svg>
